<?xml version="1.0" standalone="no"?>
<!DOCTYPE svg PUBLIC "-//W3C//DTD SVG 1.1//EN" "http://www.w3.org/Graphics/SVG/1.1/DTD/svg11.dtd" >
<svg xmlns="http://www.w3.org/2000/svg">
<metadata>
This is a custom SVG webfont generated by Font Squirrel.
Copyright   : Copyright c 2007 by GreyscaleNet All rights reserved
Designer    : Greyscale
Foundry     : GreyscaleNet
</metadata>
<defs>
<font id="webfont7M6lnXa6" horiz-adv-x="985" >
<font-face units-per-em="2048" ascent="1536" descent="-512" />
<missing-glyph horiz-adv-x="552" />
<glyph unicode=" "  horiz-adv-x="552" />
<glyph unicode="&#x09;" horiz-adv-x="552" />
<glyph unicode="&#xa0;" horiz-adv-x="552" />
<glyph unicode="!" horiz-adv-x="307" d="M102 51q4 23 22.5 37t41.5 14t35 -14t8 -37t-20.5 -37t-38.5 -14q-23 0 -37.5 14t-10.5 37zM178 485l178 1012q4 23 23.5 37t42.5 14t34 -14t7 -37l-178 -1012q-4 -23 -20.5 -38t-39.5 -15t-37 15t-10 38z" />
<glyph unicode="&#x22;" horiz-adv-x="329" d="M291 1364l26 152q2 16 15.5 26t27.5 10q16 0 26.5 -10t8.5 -26l-26 -152q-2 -16 -16.5 -26.5t-30.5 -10.5q-14 0 -23.5 10.5t-7.5 26.5zM434 1364l27 152q2 16 15 26t28 10q16 0 26.5 -10t8.5 -26l-27 -152q-2 -16 -16.5 -26.5t-30.5 -10.5q-14 0 -23.5 10.5t-7.5 26.5z " />
<glyph unicode="#" horiz-adv-x="952" d="M190 578q4 23 18.5 36t37.5 13h78l53 293h-78q-23 0 -33 15t-6 38t18.5 36t36.5 13h78l17 86q4 23 20 39t39 16t35 -16.5t8 -38.5l-16 -86h317l16 86q4 23 21.5 39t40.5 16t35 -16.5t8 -38.5l-16 -86h71q23 0 35 -13.5t8 -35.5q-4 -23 -20.5 -38t-38.5 -15h-72l-53 -293 h72q23 0 35 -13.5t8 -35.5q-10 -57 -62 -58h-72l-14 -86q-4 -16 -21.5 -32.5t-39.5 -16.5q-23 0 -35 16.5t-8 32.5l14 86h-317l-15 -86q-4 -16 -21.5 -32.5t-39.5 -16.5q-23 0 -34 16.5t-7 32.5l14 86h-78q-47 1 -37 58zM426 627h317l54 293h-318z" />
<glyph unicode="$" horiz-adv-x="911" d="M121 248q4 23 21.5 39t39.5 16h293l82 469q-18 20 -36.5 37.5t-33.5 34.5q-16 16 -30 33l-97 100v4q-27 35 -41 79t-4 93q8 45 34 88t65 78q41 33 87 51.5t93 18.5h72l18 106q4 23 20.5 37t36.5 14q23 0 33 -14t6 -37l-18 -106h254q20 0 32.5 -17.5t8.5 -42.5 q-4 -20 -21.5 -34.5t-38.5 -14.5h-254l-79 -455q14 -18 29.5 -33.5t27.5 -25.5l29 -25l129 -135q27 -37 38 -81t3 -91q-10 -47 -36 -91t-61 -73q-88 -70 -178 -69h-92l-27 -146q-4 -23 -19 -36t-38 -13q-45 0 -39 49l27 146h-293q-23 0 -35 14.5t-8 32.5zM420 1153 q-6 -29 1 -52.5t23 -41.5l21 -22l33 -36l41 -49l12 -12l13 -13q7 -7 18 -16l65 369h-72q-51 0 -100 -39q-23 -18 -37 -39.5t-18 -48.5zM571 303h93q25 0 48 7t46 26q20 23 36.5 46.5t20.5 51.5q4 23 -3 49.5t-19 48.5q-4 2 -26 23l-44 43l-59 61l-7 7q-4 4 -9 8t-11 10z" />
<glyph unicode="&#x26;" horiz-adv-x="1173" d="M147 438q18 98 77 186.5t147 149.5l168 119l-101 172q-47 80 -28 182q10 63 43.5 118.5t82 96.5t109 64.5t123.5 23.5t114.5 -23.5t86.5 -64.5t49 -96t4 -119q-10 -63 -46 -122.5t-91 -100.5l-2 -4h-4l-201 -148l278 -462l193 192q18 16 40.5 20.5t35.5 -12.5 q16 -12 13 -35.5t-19 -42.5l-209 -210l131 -230q10 -16 6 -36.5t-27 -32.5q-43 -33 -71 8l-123 213l-64 -66q-76 -80 -172 -124t-194 -44q-88 0 -160 35t-119 93.5t-66.5 136t-3.5 163.5zM254 438q-12 -68 3 -126t51 -101t89.5 -68.5t118.5 -25.5q74 0 145.5 32.5 t129.5 94.5l86 82l-291 481l-164 -115v-4q-66 -43 -110 -107.5t-58 -142.5zM516 1247q-12 -66 19 -121l96 -168l196 140q35 31 59.5 66.5t33.5 82.5q6 39 -3.5 75t-32 63.5t-57 43t-77.5 15.5q-41 0 -80 -15.5t-71 -43t-54.5 -63.5t-28.5 -75z" />
<glyph unicode="'" horiz-adv-x="239" d="M328 1364l26 152q2 16 15.5 26t27.5 10q16 0 26.5 -10t8.5 -26l-26 -152q-2 -16 -16.5 -26.5t-31.5 -10.5q-14 0 -23 10.5t-7 26.5z" />
<glyph unicode="(" horiz-adv-x="575" d="M182 344l152 860q14 76 54 142.5t98.5 115.5t129 78t146.5 29q23 0 35 -14.5t8 -36.5q-4 -23 -21.5 -37.5t-40.5 -14.5q-53 0 -104 -20.5t-92 -56t-69.5 -84t-39.5 -101.5l-151 -860q-8 -53 3 -101t39.5 -84t72.5 -56.5t98 -20.5q23 0 35 -14.5t8 -36.5q-4 -23 -21.5 -37 t-40.5 -14q-76 0 -136 28.5t-101 77.5t-57.5 115.5t-4.5 142.5z" />
<glyph unicode=")" horiz-adv-x="579" d="M41 31q4 23 20.5 37t40.5 14q53 0 103.5 20.5t91.5 56.5t70.5 84t38.5 101l151 860q10 53 -2 101.5t-41 84t-72 56t-96 20.5q-25 0 -36 14.5t-7 37.5t20.5 37t41.5 14q76 0 137 -29t101 -78t57.5 -115.5t3.5 -142.5l-152 -860q-12 -76 -53 -142.5t-98.5 -115.5 t-129 -77.5t-147.5 -28.5q-25 0 -36 14t-7 37z" />
<glyph unicode="*" horiz-adv-x="712" d="M293 1156.5q6 17.5 29 31.5l161 84l-131 90q-16 10 -17 28.5t15 34.5q10 16 28.5 22.5t35.5 -5.5l129 -86l24 139q4 23 21.5 37t36.5 14q18 0 30.5 -14t8.5 -37l-25 -139l154 86q23 12 40 6t21 -23q20 -39 -20 -63l-166 -90l135 -84q14 -14 14 -31.5t-16 -34.5 q-10 -20 -29.5 -24t-38.5 8l-123 88l-24 -147q-4 -18 -21.5 -29.5t-36.5 -11.5q-18 0 -30.5 11t-8.5 30l25 147l-160 -88q-47 -27 -57 16q-10 17 -4 34.5z" />
<glyph unicode="+" horiz-adv-x="927" d="M164 774q4 23 22.5 37t40.5 14h320l55 322q4 23 22.5 37t41.5 14t34 -14.5t7 -36.5l-56 -322h318q25 0 37 -14t8 -37t-21.5 -37t-42.5 -14h-317l-58 -320q-4 -23 -20 -38t-39 -15t-36 15.5t-9 37.5l57 320h-319q-23 0 -36 14t-9 37z" />
<glyph unicode="," horiz-adv-x="309" d="M92 -127l33 193q4 16 16.5 26t26.5 10q16 0 27.5 -10t7.5 -26l-33 -193q-4 -16 -18.5 -26.5t-30.5 -10.5q-14 0 -23.5 10.5t-5.5 26.5z" />
<glyph unicode="-" horiz-adv-x="866" d="M236 774q4 23 23.5 37t41.5 14h543q18 0 31.5 -14t9.5 -37t-22.5 -37t-37.5 -14h-542q-23 0 -37 14t-10 37z" />
<glyph unicode="." horiz-adv-x="337" d="M109 43q4 27 23.5 43t45.5 16q27 0 41 -16t10 -43t-24.5 -43t-46.5 -16q-27 0 -40 16t-9 43z" />
<glyph unicode="/" horiz-adv-x="925" d="M51 33.5q-4 21.5 10 40.5l998 1446q12 23 34.5 27.5t36.5 -5.5q20 -10 23.5 -30.5t-8.5 -41.5l-998 -1443q-14 -18 -35.5 -25.5t-39.5 0.5q-17 10 -21 31.5z" />
<glyph unicode="0" horiz-adv-x="1351" d="M219 551l78 444q20 115 82.5 216.5t149.5 176t196 117.5t223 43q115 0 207 -43t155.5 -117.5t88 -176t4.5 -216.5l-78 -444q-20 -115 -80.5 -215t-149.5 -175t-196.5 -118t-222.5 -43t-208 43t-154.5 118t-88 175t-6.5 215zM326 551q-16 -92 4 -174t70.5 -143.5 t125 -96.5t166.5 -35q78 0 153 27t142 72l-414 1097q-66 -59 -109.5 -137t-60.5 -166zM670 1368l405 -1094q57 59 94 129t52 148l77 444q16 94 -4 176t-70 143.5t-126 96.5t-168 35q-70 0 -136.5 -20.5t-123.5 -57.5z" />
<glyph unicode="1" horiz-adv-x="423" d="M166 51l246 1395h-99q-23 0 -37 14.5t-10 36.5q4 23 23.5 37t42.5 14h149q23 0 34 -14t7 -37l-254 -1446q-4 -23 -20.5 -37t-38.5 -14q-23 0 -35 14t-8 37z" />
<glyph unicode="2" horiz-adv-x="1075" d="M61 27q-6 29 17 57l977 1049v2h2q47 53 57 114q14 78 -33 140q-47 57 -125 57h-585q-18 0 -32.5 14.5t-10.5 36.5q4 23 23.5 37t37.5 14h586q59 0 110.5 -21.5t85.5 -64.5q35 -41 46.5 -96t1.5 -117q-8 -47 -32 -93t-61 -87l-897 -967h746q23 0 37 -13t10 -38 q-4 -23 -22.5 -37t-41.5 -14h-852q-35 0 -45 27z" />
<glyph unicode="3" horiz-adv-x="1056" d="M20 51q4 23 21.5 37t40.5 14h520q47 0 92 18.5t82 50.5t62.5 74t33.5 91l29 153q14 90 -30 155t-130 75h-417q-25 0 -35 15.5t-6 37.5v2q10 51 61 51h418q88 14 155.5 78t81.5 152l29 155q8 49 -3 91t-36.5 73t-63.5 49.5t-85 18.5h-521q-23 0 -36 16.5t-9 34.5 q4 25 22.5 40t41.5 15h520q68 0 124 -26.5t94 -72.5t54.5 -107.5t4.5 -131.5l-29 -155q-14 -88 -69.5 -163t-133.5 -118q61 -45 90 -119.5t15 -165.5l-29 -153q-12 -70 -49 -131.5t-91.5 -106.5t-120 -71.5t-132.5 -26.5h-520q-23 0 -36.5 14t-9.5 37z" />
<glyph unicode="4" horiz-adv-x="1138" d="M127 651q8 49 41 101.5t80 95.5l2 4l770 680q20 16 43 16h90q23 0 34 -14t7 -37l-172 -979h45q25 0 37 -15.5t10 -37.5q-4 -20 -22.5 -35.5t-42.5 -15.5h-45l-64 -363q-4 -23 -20.5 -37t-38.5 -14q-23 0 -35 14.5t-8 36.5l63 363h-579q-49 0 -89 19.5t-66 51t-38 74.5 t-2 92zM231 651q-10 -53 23 -93t86 -40h580l163 928h-18l-750 -666q-33 -31 -56.5 -65.5t-27.5 -63.5z" />
<glyph unicode="5" horiz-adv-x="1101" d="M84 51q4 23 22.5 37t38.5 14h535q53 0 105.5 20.5t94.5 56.5t70.5 84t38.5 102l35 196q8 53 -3 100.5t-41 82t-75 55t-98 20.5h-295h-2l-4 4q-117 4 -187 82q-70 94 -49 213l45 256q12 74 72 123q31 27 64.5 39t68.5 12h291h430q23 0 34 -14t7 -37t-20.5 -37t-38.5 -14 h-430h-291q-14 0 -27.5 -6t-23.5 -15q-25 -31 -29 -51l-45 -256q-8 -39 0 -73.5t29 -61.5q51 -57 124 -57h9h286q76 0 137.5 -29t103.5 -78t59.5 -115.5t4.5 -142.5l-34 -196q-14 -76 -55.5 -142.5t-100.5 -116t-130 -78t-146 -28.5h-535q-20 0 -34.5 14t-10.5 37z" />
<glyph unicode="6" horiz-adv-x="1275" d="M207 365l143 819q14 76 54 142.5t99.5 115.5t131.5 77.5t147 28.5h242q76 0 137.5 -28.5t102.5 -77.5t58 -115.5t3 -142.5q-4 -23 -22.5 -38.5t-40.5 -15.5q-23 0 -35.5 15.5t-7.5 38.5q10 53 -2.5 101t-42 84t-72.5 56.5t-96 20.5h-242q-53 0 -105.5 -20.5t-93.5 -56.5 t-69.5 -84t-38.5 -101l-47 -266q125 109 280 108h279q76 0 137 -28.5t101 -78t57.5 -116t3.5 -141.5l-51 -297q-14 -76 -54.5 -142.5t-98.5 -116t-129 -78t-147 -28.5h-278q-76 0 -138.5 28.5t-103.5 78t-58 116t-3 142.5zM313 365q-10 -53 2.5 -101.5t41 -84.5t72.5 -56.5 t97 -20.5h279q53 0 104.5 20.5t92 56.5t69.5 84t39 102l51 297q10 53 -2 101t-40.5 84t-71.5 56.5t-97 20.5h-278q-53 0 -105.5 -20.5t-93.5 -56.5t-69.5 -84t-38.5 -101z" />
<glyph unicode="7" horiz-adv-x="991" d="M274 1497q4 23 22.5 37t39.5 14h625q109 0 161 -73q61 -74 43 -177q-4 -23 -11 -44t-17 -44l-2 -4l-707 -1175q-10 -23 -32.5 -30t-37.5 1q-20 10 -24 28.5t8 41.5l700 1175q12 23 17 51q10 59 -21 105q-37 39 -96 39l-625 4q-20 0 -33.5 14t-9.5 37z" />
<glyph unicode="8" horiz-adv-x="1245" d="M182 365l35 200q18 104 89 191.5t169 132.5q-45 43 -65.5 104.5t-8.5 132.5l23 119q10 61 44 116.5t83 97.5t108.5 65.5t122.5 23.5h228q61 0 112.5 -23.5t86 -65.5t48 -97t3.5 -117l-23 -119q-12 -72 -53 -133t-103 -104q82 -45 122 -132t22 -192l-35 -200 q-14 -76 -54 -142.5t-98.5 -116t-130 -78t-147.5 -28.5h-279q-76 0 -137 28.5t-101 78t-57.5 116t-3.5 142.5zM287 365q-10 -53 2 -101.5t40.5 -84.5t71.5 -56.5t97 -20.5h278q53 0 105.5 20.5t94.5 56.5t70.5 84t38.5 102l35 200q10 51 -2 98.5t-41.5 83t-75 56t-98.5 20.5 h-278q-53 0 -103.5 -20.5t-91.5 -56t-69.5 -83t-38.5 -98.5zM506 1126q-6 -41 3 -76.5t31.5 -63.5t56.5 -44t75 -16h225h2q41 0 80 16t71.5 44t55 63.5t29.5 76.5l22 119q6 41 -4 77t-32.5 63.5t-55.5 44t-74 16.5h-227q-41 0 -81 -16.5t-72.5 -44t-54 -63.5t-28.5 -77z" />
<glyph unicode="9" horiz-adv-x="1273" d="M221 365q4 23 21.5 37t42.5 14q23 0 35 -14.5t8 -36.5q-10 -53 2 -101.5t40.5 -84.5t71.5 -56.5t97 -20.5h243q53 0 104.5 20.5t92.5 56.5t69.5 84t38.5 102l64 358q-57 -53 -130 -81t-149 -28h-278q-76 0 -137.5 29t-101.5 78t-57 114.5t-3 141.5l35 207q14 76 54 142.5 t98.5 115.5t130 77.5t147.5 28.5h278q76 0 137.5 -28.5t101.5 -77.5t57.5 -115.5t2.5 -142.5l-143 -819q-14 -76 -54 -142.5t-98.5 -116t-129 -78t-146.5 -28.5h-244q-76 0 -138 28.5t-102 78t-57.5 116t-3.5 142.5zM401 977q-10 -53 2.5 -100.5t41 -82t71.5 -55t96 -20.5 h279q53 0 104.5 20.5t92 55t69.5 82t39 100.5l35 207q10 53 -2 101t-41 84t-72 56.5t-96 20.5h-279q-53 0 -104 -20.5t-92 -56.5t-70 -84t-39 -101z" />
<glyph unicode=":" horiz-adv-x="382" d="M211 414q4 23 21.5 37t39.5 14q23 0 35 -14.5t8 -36.5q-4 -23 -21.5 -38.5t-39.5 -15.5q-23 0 -35 15.5t-8 38.5zM274 774q4 23 21.5 37t40.5 14t35 -14t8 -37t-21.5 -37t-40.5 -14t-35 14t-8 37z" />
<glyph unicode=";" horiz-adv-x="380" d="M201 276l39 213q2 16 15 26.5t28 10.5q16 0 26 -10t8 -27l-38 -213q-2 -16 -16.5 -26t-31.5 -10q-14 0 -23 10t-7 26zM274 774q4 23 21.5 37t40.5 14t36 -14t9 -37t-22.5 -37t-41.5 -14t-35 14t-8 37z" />
<glyph unicode="&#x3c;" horiz-adv-x="679" d="M147 774q4 23 27 41l500 361q18 12 38.5 10t30.5 -19q14 -16 6 -37.5t-26 -33.5l-438 -322l323 -321q14 -16 15.5 -37t-19.5 -37q-14 -16 -36.5 -19.5t-35.5 13.5l-372 360q-15 23 -13 41z" />
<glyph unicode="=" horiz-adv-x="980" d="M287 774q4 23 23.5 37t41.5 14h572q18 0 31.5 -14t9.5 -37t-22.5 -37t-37.5 -14h-571q-23 0 -37 14t-10 37zM319 954q4 23 22.5 37.5t41.5 14.5h571q18 0 32.5 -14.5t10.5 -37.5t-23.5 -37t-37.5 -14h-571q-23 0 -36.5 14t-9.5 37z" />
<glyph unicode="&#x3e;" horiz-adv-x="677" d="M201 415.5q6 20.5 24 37.5l439 321l-324 322q-14 12 -13 33.5t17 37.5q18 16 40 18.5t36 -9.5l373 -361q4 -8 7 -19.5t1 -21.5t-8.5 -20.5t-14.5 -20.5l-499 -360q-20 -16 -40 -13.5t-34 19.5q-10 16 -4 36.5z" />
<glyph unicode="?" horiz-adv-x="847" d="M180 51q4 23 21.5 37t42.5 14q18 0 32.5 -14t10.5 -37t-22.5 -37t-37.5 -14q-25 0 -38 14t-9 37zM260 500l21 125q10 59 42.5 115.5t82.5 97.5q102 88 227 88q53 0 104 20.5t93 55t71 81.5t37 101q10 53 -2 101t-42 84t-73 56.5t-96 20.5h-408q-23 0 -35 14.5t-8 36.5 q4 23 21.5 37t40.5 14h407q76 0 137.5 -28.5t101.5 -77.5t57.5 -115.5t2.5 -142.5q-12 -76 -53 -142.5t-98 -115.5t-129 -78t-148 -29q-80 0 -147 -53q-31 -31 -51.5 -65.5t-28.5 -75.5l-20 -125q-6 -25 -24.5 -40.5t-37.5 -15.5q-25 0 -38 15.5t-7 40.5z" />
<glyph unicode="@" horiz-adv-x="1685" d="M207 418l125 706q20 113 80.5 213.5t148.5 176t197.5 118.5t224.5 43h209h121q113 0 206 -42t158 -120q63 -80 87 -179t3 -210l-26 -157l-113 -637q-4 -20 -21.5 -35.5t-39.5 -15.5q-23 0 -36 15t-9 36l112 637l27 157q16 88 -2.5 169t-71.5 147t-127 97.5t-166 31.5 h-120h-209q-94 0 -182.5 -35t-161 -95.5t-121.5 -141t-66 -173.5l-125 -706q-2 -23 -19.5 -38t-39.5 -15q-25 0 -35 15t-8 38zM207 418q-2 -23 8 -38t35 -15q23 0 40 15t19 38q-14 -92 5.5 -174t70.5 -142.5t127 -96.5t170 -36l317 2q53 0 97.5 37t54.5 90l31 172 q-25 -6 -39 -6h-137h-250q-94 0 -154 68q-27 35 -38 78t-1 90l31 182q8 47 34.5 89t64.5 72.5t83 49t94 18.5h117h86h96q35 0 65 -8t54 -29v7l29 163q8 45 -21 86q-29 37 -86 37h-92h-43h-215l-14 -80q-4 -23 -21.5 -38t-40.5 -15q-20 0 -33.5 15.5t-9.5 37.5l25 134 q4 23 21.5 38t37.5 15h269h43h92q98 0 153 -68q31 -33 39.5 -74.5t-0.5 -87.5l-28 -163l-33 -195l-2 -4v-6l-64 -359l-39 -219q-8 -49 -32.5 -91t-62.5 -73.5t-84 -50t-95 -18.5l-317 -2q-115 0 -209.5 44t-155.5 118.5t-85.5 176t-6.5 216.5zM670 500q-10 -51 20 -92 q35 -37 84 -37h250h137q16 0 28.5 10t16.5 27l2 14l47 264q6 51 -23.5 85t-80.5 34h-96h-86h-117q-53 0 -97 -35t-55 -88z" />
<glyph unicode="A" horiz-adv-x="1413" d="M87 30q-2 6 -2 13q0 13 7 27l752 1443q20 37 55 37h160q39 0 43 -37l246 -1443q2 -20 -10.5 -40t-34.5 -28q-10 -4 -19 -4q-11 0 -21 6q-17 10 -20 33l-84 473h-727l-244 -473q-12 -23 -33 -33q-12 -6 -23 -6q-9 0 -17 4q-23 9 -28 28zM487 616h658l-141 830h-84z" />
<glyph unicode="B" horiz-adv-x="1331" d="M164 51l254 1446q4 23 22.5 38t42.5 15h506q76 0 137.5 -28.5t102.5 -77.5t57 -115q9 -37 10 -78q0 -31 -6 -63l-4 -25q-14 -82 -60 -151.5t-112 -120.5q55 -16 98 -49t71 -79t37 -104q4 -27 4 -55q0 -32 -5 -65l-31 -174q-14 -76 -54 -142.5t-98.5 -116t-129 -78 t-146.5 -28.5h-649q-25 0 -38 14t-9 37zM281 106h598q53 0 104 20.5t93 55.5t71 82t39 101l31 174q3 22 3 44q0 30 -7 57q-11 48 -40.5 84t-74.5 56.5t-99 20.5h-143h-455zM420 903h454q53 0 104.5 20.5t92.5 55.5t69.5 83t39.5 101l4 25q3 21 3 41q0 30 -7 59 q-12 47 -41 82t-72 55.5t-96 20.5h-455z" />
<glyph unicode="C" horiz-adv-x="1024" d="M211 553l78 444q20 115 81.5 215.5t149.5 176t196.5 118.5t223.5 43h279q23 0 34 -15q9 -12 10 -27q0 -5 -1 -11q-4 -23 -21.5 -37t-40.5 -14h-278q-92 0 -180.5 -35t-161 -96.5t-121.5 -143t-66 -174.5l-78 -444q-7 -43 -7 -82q0 -134 85 -233q49 -66 125 -99t168 -33 h281q23 0 34 -16t7 -39t-20.5 -37t-39.5 -14h-280q-111 0 -205 41t-160 119q-63 80 -87 181q-13 57 -13 117q0 46 8 95z" />
<glyph unicode="D" horiz-adv-x="1318" d="M164 51l254 1446q4 23 21.5 38t39.5 15h439q115 0 209 -43t155 -118.5t87 -176.5q14 -56 14 -116q0 -48 -9 -99l-78 -444q-20 -115 -81.5 -215t-149.5 -175t-196.5 -119t-223.5 -44h-438q-23 0 -35 14q-9 11 -9 26q0 5 1 11zM276 106h388q92 0 180 35t159.5 96.5 t121 142.5t65.5 173l78 444q7 41 7 81q0 47 -10 91q-19 82 -73 144q-51 66 -126 99.5t-167 33.5h-387z" />
<glyph unicode="E" horiz-adv-x="1134" d="M164 51l254 1446q4 23 21.5 38t39.5 15h867q23 0 34 -15q9 -12 10 -27q0 -5 -1 -11q-4 -23 -21.5 -37t-40.5 -14h-815l-96 -545h719q23 0 35 -15.5t8 -37.5q-2 -23 -20.5 -38t-41.5 -15h-719l-121 -689h816q23 0 35 -16t8 -39t-21.5 -37t-40.5 -14h-866q-23 0 -35 14 q-9 11 -9 26q0 5 1 11z" />
<glyph unicode="F" horiz-adv-x="1126" d="M164 51l254 1446q4 23 22.5 38t38.5 15h869q23 0 33 -15q8 -11 9 -26q0 -5 -1 -12q-4 -23 -20.5 -37t-39.5 -14h-813l-96 -545h717q23 0 34 -15.5t7 -37.5q-2 -23 -19.5 -38t-40.5 -15h-717l-131 -744q-4 -23 -22.5 -37t-40.5 -14q-20 0 -33.5 14t-9.5 37z" />
<glyph unicode="G" horiz-adv-x="1333" d="M219 553l78 444q20 115 82.5 215.5t150.5 176t196 118.5t222 43q160 0 275.5 -80.5t162.5 -220.5q3 -8 3 -16q0 -11 -5 -24q-8 -22 -30 -31q-23 -10 -42.5 -3t-25.5 27q-39 115 -133 179.5t-223 64.5q-92 0 -179 -35t-160 -96.5t-122 -143t-66 -174.5l-77 -444 q-7 -41 -8 -80q0 -48 12 -93q20 -81 71.5 -142.5t126 -96.5t166.5 -35t180.5 35t160 96.5t120.5 142.5t66 173l30 170h-190q-23 0 -35 14.5t-8 36.5q4 23 21.5 39t39.5 16h242q23 0 37 -18q12 -14 8 -37l-39 -221q-20 -115 -81.5 -215t-149.5 -175t-196.5 -119t-223.5 -44 t-208 44t-154.5 119t-88.5 175q-15 57 -15 118q0 47 9 97z" />
<glyph unicode="H" horiz-adv-x="1421" d="M164 51l254 1446q4 23 22.5 38t40.5 15q23 0 35 -15t8 -38l-102 -588h901l102 588q4 23 21.5 38t40.5 15t34 -15q8 -11 8 -26q0 -5 -1 -12l-254 -1446q-4 -23 -20.5 -37t-39.5 -14t-35 14.5t-8 36.5l134 752h-902l-133 -752q-4 -23 -21.5 -37t-39.5 -14q-23 0 -36 14 t-9 37z" />
<glyph unicode="I" horiz-adv-x="438" d="M164 51l254 1446q4 23 22.5 38t40.5 15q23 0 35 -15q9 -12 9 -27q0 -5 -1 -11l-254 -1446q-4 -23 -21.5 -37t-39.5 -14q-23 0 -36 14t-9 37z" />
<glyph unicode="J" horiz-adv-x="731" d="M31 90q18 16 41 16q92 0 180 35t159.5 96.5t121 142.5t65.5 173l166 944q4 23 21.5 38t39.5 15q23 0 34 -15q8 -11 8 -26q0 -5 -1 -12l-166 -944q-20 -115 -80.5 -215t-148.5 -175t-195.5 -119t-222.5 -44q-23 0 -36 14q-10 11 -10 27q1 28 24 49z" />
<glyph unicode="K" horiz-adv-x="1363" d="M164 51l254 1446q4 23 21.5 38t39.5 15q25 0 37 -15t8 -38l-104 -596h307l690 633q18 16 40 17h3q20 0 33 -15q12 -12 12 -28q0 -26 -24 -46l-676 -618l418 -760q6 -18 -1.5 -39.5t-27.5 -36.5q-14 -9 -29 -9q-5 0 -10 1q-20 4 -35 20l-415 775h-304l-131 -744 q-4 -23 -21.5 -37t-41.5 -14q-23 0 -35 14q-9 11 -9 26q0 5 1 11z" />
<glyph unicode="L" horiz-adv-x="1114" d="M164 51l254 1446q4 23 22.5 38t42.5 15q23 0 34 -15t7 -38l-243 -1391h796q23 0 36 -16q10 -13 10 -29q0 -5 -1 -10q-4 -23 -22.5 -37t-40.5 -14h-823h-15h-10q-25 0 -38 14t-9 37z" />
<glyph unicode="M" horiz-adv-x="1646" d="M164 51l254 1446q4 23 21.5 38t39.5 15h123q27 0 39 -22l360 -660l537 658q23 25 51 24h121q23 0 35 -15q9 -12 9 -27q0 -5 -1 -11l-254 -1446q-4 -23 -21.5 -37t-39.5 -14q-23 0 -36 14.5t-9 36.5l245 1395h-39l-573 -698q-23 -25 -47 -25q-29 0 -39 20l-385 703h-39 l-246 -1395q-4 -23 -22.5 -37t-40.5 -14q-23 0 -35 14q-9 11 -9 26q0 5 1 11z" />
<glyph unicode="N" horiz-adv-x="1406" d="M164 51l254 1446q4 23 22.5 38t40.5 15h129q33 0 41 -28l467 -1416h45l244 1391q4 23 22.5 38t40.5 15q23 0 35 -15q9 -12 9 -27q0 -5 -1 -11l-253 -1446q-4 -23 -21.5 -37t-40.5 -14h-129q-33 0 -43 29l-469 1417h-41l-246 -1395q-4 -23 -21.5 -37t-39.5 -14 q-23 0 -36 14t-9 37z" />
<glyph unicode="O" horiz-adv-x="1351" d="M219 553l78 444q20 115 81.5 215.5t149.5 176t197 118.5t223 43q113 0 206 -41t159 -118q63 -80 87 -182q13 -54 12 -111q0 -49 -9 -101l-78 -444q-20 -115 -80.5 -215t-149.5 -175t-196.5 -119t-222.5 -44t-209 44t-155.5 119t-87.5 175q-14 56 -14 116q0 48 9 99z M326 553q-7 -41 -8 -80q0 -48 12 -93q20 -81 71.5 -142.5t126 -96.5t166.5 -35t180.5 35t160 96.5t120.5 142.5t66 173l77 444q7 41 8 81q0 47 -11 91q-19 82 -72 144q-51 66 -126 99.5t-167 33.5t-179 -35t-160 -96.5t-122 -143t-66 -174.5z" />
<glyph unicode="P" horiz-adv-x="1165" d="M164 51l254 1446q4 23 23.5 38t41.5 15h2h484q92 0 168.5 -35.5t127 -97t71.5 -143.5q12 -46 13 -97q0 -38 -8 -79q-16 -94 -66 -176t-123 -143.5t-162 -96.5t-181 -35h-434l-105 -596q-4 -23 -20.5 -37t-38.5 -14q-23 0 -37 14t-10 37zM393 752h434q72 0 139.5 27.5 t123 74.5t94.5 109.5t51 134.5q5 31 5 60q0 39 -9 75q-16 63 -55 110.5t-96.5 75t-129.5 27.5h-434z" />
<glyph unicode="Q" horiz-adv-x="1368" d="M219 553l78 444q20 115 81.5 215.5t150.5 176t197 118.5t222 43q111 0 205 -41t160 -118q63 -80 87 -182q13 -54 12 -111q0 -49 -9 -101l-78 -444q-16 -98 -66.5 -188.5t-121.5 -163.5l94 -113q14 -14 10 -34.5t-22 -37.5q-18 -16 -41 -16t-35 16l-92 113 q-84 -59 -178.5 -94t-196.5 -35q-115 0 -208 44t-155.5 119t-88.5 175q-14 56 -14 116q0 48 9 99zM324 553q-7 -41 -8 -80q0 -48 12 -93q20 -81 71.5 -142.5t127 -96.5t167.5 -35t179.5 35t159 96.5t120.5 142.5t66 173l77 444q8 42 8 83q0 46 -10 89q-18 82 -71 144 q-106 133 -293 133q-92 0 -180 -35t-161 -96.5t-122 -143t-66 -174.5z" />
<glyph unicode="R" horiz-adv-x="1275" d="M164 51l254 1446q4 23 21.5 38t39.5 15h4h482q94 0 169.5 -35.5t126 -97t71.5 -143.5q12 -46 12 -97q0 -38 -7 -79q-14 -82 -55 -156t-99.5 -132t-132 -99t-151.5 -58l258 -573q8 -16 0 -36.5t-29 -35.5q-14 -9 -28 -8l-13 1q-20 5 -26 26l-285 620h-405l-105 -596 q-4 -23 -20.5 -37t-38.5 -14q-23 0 -35 14q-9 11 -9 26q0 5 1 11zM389 752h434q72 0 140.5 27.5t124 74.5t93.5 109.5t50 134.5q5 32 5 62q0 38 -8 73q-15 63 -54 110.5t-97.5 75t-130.5 27.5h-434z" />
<glyph unicode="S" horiz-adv-x="1077" d="M70 51q4 23 21.5 39t39.5 16h600q82 0 145.5 56.5t77.5 136.5q3 19 4 37q0 58 -36 100l-576 602q-35 43 -50 100q-9 34 -9 68q0 23 4 47q12 59 44 113.5t81 97.5q104 86 227 86h600q23 0 35 -15q8 -10 8 -24q0 -7 -2 -14q-4 -23 -20.5 -37t-38.5 -14h-600q-78 0 -148 -55 q-66 -59 -80 -138q-3 -17 -2 -32q0 -60 37 -105l574 -602q41 -43 53 -99q7 -31 7 -63q0 -26 -5 -53q-10 -63 -44 -117.5t-81 -94.5t-104.5 -63.5t-118.5 -23.5h-600q-23 0 -35 16q-9 12 -9 26q0 4 1 9z" />
<glyph unicode="T" horiz-adv-x="1099" d="M322 1535q18 15 40 15h922q23 0 34 -15q8 -11 8 -26q0 -5 -1 -12q-4 -23 -20.5 -37t-38.5 -14h-406l-246 -1395q-4 -23 -21.5 -37t-39.5 -14q-23 0 -35 14.5t-8 36.5l246 1395h-412q-23 0 -36 14q-10 11 -10 27q1 28 24 48z" />
<glyph unicode="U" horiz-adv-x="1384" d="M236 553l165 944q4 23 22.5 38t41.5 15t35 -15t8 -38l-166 -944q-7 -41 -7 -80q0 -48 11 -93q20 -81 71.5 -142.5t126 -96.5t167.5 -35q92 0 180 35t159.5 96.5t122 142.5t66.5 173l166 944q4 23 21.5 38t39.5 15q23 0 34 -15q8 -11 8 -26q0 -5 -1 -12l-166 -944 q-20 -115 -80.5 -215t-148.5 -175t-196.5 -119t-223.5 -44t-208 44t-154.5 119t-87.5 175q-15 57 -15 118q0 47 9 97z" />
<glyph unicode="V" horiz-adv-x="1411" d="M338 1479q-2 23 10 41t35 28q9 2 17 3q12 0 23 -6q17 -9 21 -27l261 -1412h34l760 1412q12 18 33 27q11 5 22 5l19 -4q20 -8 26 -26q2 -6 2 -12q0 -14 -10 -29l-778 -1444q-18 -35 -55 -35h-109q-37 0 -47 35z" />
<glyph unicode="W" horiz-adv-x="1978" d="M375 1485q-2 23 11 41t38 22q8 2 14 2q14 0 25 -8q16 -12 18 -31l103 -1405h30l605 1405q12 39 57 39q16 0 28.5 -11t14.5 -28l90 -1405h31l592 1405q8 18 28 31q14 8 29 8q7 0 14 -2q20 -4 28 -22q3 -9 3 -18q0 -11 -4 -23l-610 -1444q-8 -18 -24.5 -29.5t-33.5 -11.5 h-112q-41 0 -45 41l-82 1235l-529 -1235q-20 -41 -57 -41h-115q-39 0 -43 41z" />
<glyph unicode="X" horiz-adv-x="1372" d="M156 84l602 692l-355 692q-10 16 -3.5 39t28.5 35q13 7 28 7q6 0 12 -1q22 -4 32 -20l340 -656l569 656q12 16 36 20q7 1 13 1q15 0 25 -7q14 -12 14 -34.5t-12 -39.5l-602 -692l362 -692q6 -20 -1 -40.5t-27 -35.5q-14 -9 -29 -8l-12 1q-20 5 -33 22l-336 663l-576 -663 q-14 -16 -37 -22q-7 -2 -14 -1q-15 0 -24 8q-15 13 -16 33q1 21 16 43z" />
<glyph unicode="Y" horiz-adv-x="1214" d="M324 1507q8 23 26 35q16 7 31 7q6 0 11 -1q19 -4 32 -20l338 -656l571 656q12 16 35 20q6 1 12 1q15 0 27 -7q15 -12 15 -32q0 -24 -13 -42l-612 -706l-125 -711q-4 -23 -21.5 -37t-40.5 -14t-36 14.5t-9 36.5l125 711q-4 4 -5 7t-5 7l-352 692q-7 10 -8 22q1 8 4 17z " />
<glyph unicode="Z" horiz-adv-x="1116" d="M61 51l17 90l8 17q4 8 8 14l1102 1239l6 35h-842q-20 0 -34.5 14.5t-10.5 36.5q4 23 23.5 38t40.5 15h897q20 0 35 -16q7 -10 7 -25q0 -6 -1 -12l-19 -104q-2 -20 -12 -31l-1106 -1239l-2 -17h844q23 0 34 -16t7 -39t-20.5 -37t-38.5 -14h-898q-18 0 -36 16q-13 19 -9 35 z" />
<glyph unicode="[" horiz-adv-x="600" d="M180 217l197 1110q8 51 34.5 95t63.5 77t85 51.5t97 18.5h121q23 0 34 -14.5t7 -36.5q-4 -23 -20.5 -37.5t-38.5 -14.5h-121q-53 0 -100 -40t-58 -99l-196 -1110q-10 -55 23.5 -95t86.5 -40h121q23 0 34 -14.5t7 -36.5q-4 -23 -20.5 -37t-38.5 -14h-121q-49 0 -90 18 t-66.5 51t-37 76t-3.5 92z" />
<glyph unicode="\" horiz-adv-x="653" d="M301 1583q-2 18 11.5 38.5t35.5 29.5q23 4 40.5 -5.5t19.5 -27.5l223 -1548q8 -23 -8.5 -43.5t-34.5 -24.5q-25 -6 -41.5 3t-22.5 32z" />
<glyph unicode="]" horiz-adv-x="602" d="M47 31q4 23 22.5 37t39.5 14h122q57 0 102.5 40t55.5 95l197 1110q10 59 -22 99t-89 40h-123q-20 0 -33.5 14.5t-9.5 37.5t22.5 37t39.5 14h123q49 0 89 -18.5t66.5 -51.5t36.5 -77t2 -95l-196 -1110q-8 -49 -34 -92t-64 -76t-85 -51t-96 -18h-123q-20 0 -33.5 14 t-9.5 37z" />
<glyph unicode="^" horiz-adv-x="925" d="M234.5 1047.5q1.5 21.5 19.5 37.5l438 437q25 18 43 18q23 0 39 -18l283 -437q10 -16 4 -37.5t-25 -33.5q-20 -16 -40.5 -12t-30.5 20l-254 381l-389 -381q-18 -16 -40 -20.5t-34 12.5q-15 12 -13.5 33.5z" />
<glyph unicode="_" horiz-adv-x="970" d="M156 51q4 23 21.5 37t39.5 14h571q18 0 33 -14t10 -37q-4 -23 -22 -37t-37 -14h-571q-23 0 -36 14t-9 37z" />
<glyph unicode="`" horiz-adv-x="542" d="M483 1776.5q4 21.5 25 38.5q16 14 37.5 15t34.5 -15l63 -78q14 -16 9 -37t-21 -35q-20 -16 -42 -17t-34 13l-63 78q-13 16 -9 37.5z" />
<glyph unicode="a" d="M141 322q12 66 47 124t88 105q53 45 117 69.5t129 24.5h172h51q41 0 74 27q31 27 37 67l2 6l4 29q3 14 3 27q0 38 -23 65q-14 16 -35 26.5t-47 10.5h-94h-43h-250q-25 0 -37 14.5t-8 36.5q4 23 21.5 37.5t41.5 14.5h250h43h94q45 0 85 -16.5t67 -49.5q43 -51 43 -120 q0 -22 -4 -46l-29 -160l-98 -563q-4 -23 -20.5 -37t-39.5 -14t-37 14.5t-10 36.5l6 33q-104 -84 -231 -84h-100q-68 0 -122.5 25.5t-91 68.5t-52.5 102q-9 32 -8 67q0 29 5 59zM248 322q-4 -20 -4 -40q0 -24 6 -45q10 -40 33.5 -70t60.5 -47.5t82 -17.5h100q43 0 86 17.5 t78 46.5q76 66 92 156l43 243q-25 -16 -49 -21t-49 -5h-51h-172q-92 0 -166 -62.5t-90 -154.5z" />
<glyph unicode="b" horiz-adv-x="927" d="M164 49l158 903l2 2l96 545q4 23 20.5 37t38.5 14q25 0 37 -14t8 -37l-88 -493h234q80 0 149.5 -30t116.5 -89q49 -57 65 -131q9 -39 9 -81q0 -36 -6 -73l-35 -199q-14 -82 -57.5 -155.5t-110.5 -130.5q-68 -55 -148 -86t-159 -31h-246l-43 -2q-8 0 -18.5 3t-14.5 11 q-9 11 -9 26q0 5 1 11zM276 102h234q125 0 227 91q51 41 83 96t42 114l35 199q5 30 5 58q0 88 -54 155q-35 41 -85 64.5t-112 23.5h-233z" />
<glyph unicode="c" horiz-adv-x="817" d="M178 393l39 221q14 80 58 152t106.5 125t139.5 84t161 31h184q23 0 36 -15q10 -11 10 -26q0 -29 -23 -47q-18 -14 -41 -15h-184q-59 0 -117 -22.5t-103 -62.5t-76.5 -92t-43.5 -112l-39 -221q-4 -27 -5 -51q0 -32 8 -62q13 -52 45 -92.5t81 -63t108 -22.5h185 q23 0 36 -14t9 -37t-21.5 -37t-40.5 -14h-184q-84 0 -150.5 30.5t-110.5 84t-63 125.5q-10 40 -10 83q0 34 6 70z" />
<glyph unicode="d" horiz-adv-x="929" d="M100 408l35 196q14 84 58.5 158t109 129t143 87t162.5 32h236l88 493q4 23 20.5 37t38.5 14q23 0 35 -14q9 -11 9 -26q0 -5 -1 -11l-256 -1452q-2 -8 -5 -17t-15 -20q-16 -14 -39 -14l-287 2q-84 0 -152.5 32t-112.5 87t-64 129q-11 40 -10 83q0 37 7 75zM205 408 q-6 -28 -6 -56q0 -32 8 -61q14 -55 48 -96t84 -65t112 -24h235l59 340l80 459h-235q-61 0 -119.5 -23.5t-107 -65.5t-81 -96t-42.5 -116z" />
<glyph unicode="e" d="M186 393l39 221q14 78 55.5 150t110.5 127q66 57 142.5 86t156.5 29q164 0 258 -115q45 -55 63 -127q10 -39 9 -81q0 -34 -6 -69l-17 -100q-4 -23 -22.5 -38t-40.5 -15h-631l-12 -68q-4 -27 -5 -51q0 -32 8 -62q13 -52 46 -92.5t81 -63t109 -22.5h224q23 0 35 -14t8 -37 t-20.5 -37t-39.5 -14h-223q-82 0 -148.5 30.5t-111.5 84t-64 125.5q-10 40 -10 83q0 34 6 70zM322 565h577l8 49q5 25 5 50q0 30 -7 59q-12 53 -45 94q-68 86 -188 86q-59 0 -115.5 -22.5t-103.5 -63.5q-49 -41 -81 -94t-42 -109z" />
<glyph unicode="f" horiz-adv-x="749" d="M156 51l206 1174q12 68 48 127t88.5 102t116 68.5t130.5 25.5h224q23 0 35 -14q9 -11 9 -26q0 -5 -1 -11q-4 -23 -21.5 -37t-40.5 -14h-223q-45 0 -88 -17.5t-79 -48t-60.5 -70.5t-32.5 -85l-39 -219h387q23 0 36 -14.5t9 -37.5t-22.5 -37t-40.5 -14h-387l-150 -852 q-4 -23 -20.5 -37t-38.5 -14q-23 0 -36 14t-9 37z" />
<glyph unicode="g" horiz-adv-x="1021" d="M115 -309q4 23 21.5 37t37.5 14h260q59 0 115.5 22.5t103.5 61.5t80 92t43 113l17 92q-68 -59 -147 -91t-165 -32q-78 0 -145.5 29.5t-112.5 85.5q-47 53 -63 126q-9 39 -9 79q0 36 7 73l39 221q14 78 55 150t108 127q63 57 141.5 86t155.5 29q86 0 154 -33t115 -92 l14 73q4 23 20.5 37.5t38.5 14.5q23 0 37.5 -14.5t10.5 -37.5l-164 -923q-14 -82 -58.5 -153t-108 -124t-142 -83.5t-158.5 -30.5h-260q-20 0 -33 14q-9 11 -9 26q0 5 1 11zM262 393q-5 -28 -5 -53q0 -86 52 -154q35 -39 83 -61.5t106 -22.5q59 0 115.5 22.5t103.5 62.5 t79.5 92.5t43.5 113.5l39 221q6 27 5 54q0 30 -7 58q-14 52 -48 92t-82.5 62.5t-107.5 22.5q-115 0 -219 -86q-49 -41 -79 -94t-40 -109z" />
<glyph unicode="h" d="M164 49l256 1450q4 23 22.5 37t36.5 14q25 0 38 -14t9 -37l-110 -616q2 4 5 4t5 4q135 115 299 115q82 0 148.5 -31t110.5 -84t63 -125q10 -40 10 -83q0 -33 -6 -69l-99 -563q-4 -23 -21.5 -37t-39.5 -14q-20 0 -34.5 14.5t-10.5 36.5l98 563q6 29 6 56q0 29 -7 56 q-13 52 -46 92t-82 62.5t-108 22.5q-113 0 -218 -86q-49 -41 -79.5 -94t-40.5 -109l-99 -565q-4 -20 -22.5 -35.5t-42.5 -15.5q-18 0 -31.5 15.5t-9.5 35.5z" />
<glyph unicode="i" horiz-adv-x="366" d="M131 55l160 899q4 23 20.5 37.5t38.5 14.5q23 0 36 -14.5t9 -37.5l-159 -899q-4 -25 -21.5 -39t-40.5 -14q-44 0 -44 40q0 6 1 13zM332 1188q4 23 20.5 37t38.5 14q23 0 36 -14q10 -11 10 -27q0 -31 -23 -50q-18 -15 -41 -15t-34 15q-8 11 -8 27q0 6 1 13z" />
<glyph unicode="j" horiz-adv-x="563" d="M-53 -309q4 23 20.5 37t36.5 14q59 0 115.5 22.5t103.5 61.5t80 92t43 113l164 923q4 23 19.5 37.5t39.5 14.5q23 0 35 -14.5t8 -37.5l-163 -923q-14 -82 -57.5 -153t-107 -124t-141 -83.5t-155.5 -30.5q-23 0 -34 14q-8 11 -8 25q0 6 1 12zM551 1188q4 23 19.5 37 t39.5 14q23 0 35 -14q9 -11 9 -26q0 -5 -1 -11q-4 -25 -21.5 -40t-39.5 -15q-25 0 -35 15q-7 11 -7 27q0 6 1 13z" />
<glyph unicode="k" horiz-adv-x="890" d="M164 51l254 1446q4 23 21.5 37t39.5 14q25 0 35 -14t6 -37l-117 -672h177l266 172q18 10 40.5 7t28.5 -17q6 -13 7 -26q0 -8 -2 -17q-6 -23 -29 -33l-242 -153l219 -684q6 -18 -4 -40t-33 -32q-11 -4 -21 -4l-19 3q-20 7 -27 26l-221 696h-158l-119 -672 q-4 -23 -19.5 -37t-39.5 -14q-23 0 -35 14q-9 11 -9 26q0 5 1 11z" />
<glyph unicode="l" horiz-adv-x="438" d="M164 55l256 1444q4 23 21.5 37t41.5 14q18 0 32.5 -14t10.5 -37l-256 -1444q-4 -25 -22.5 -39t-36.5 -14q-25 0 -38 14q-10 11 -10 28q0 5 1 11z" />
<glyph unicode="m" horiz-adv-x="1669" d="M164 51l160 903q4 23 20 37.5t39 14.5t36 -14.5t9 -37.5l-6 -34q106 86 233 86h84q86 0 150.5 -40t99.5 -106q53 66 131 106t164 40h84q66 0 121 -26t91 -69t52 -102q9 -34 10 -71q0 -27 -6 -56l-110 -631q-4 -23 -21.5 -37t-40.5 -14t-36 14.5t-9 36.5l111 631 q4 20 3 39q0 24 -5 46q-10 40 -35 70.5t-61.5 48t-81.5 17.5h-84q-45 0 -88 -17.5t-77 -48t-58.5 -70.5t-32.5 -85l-111 -631q-4 -23 -22.5 -37t-38.5 -14q-23 0 -36.5 14.5t-8.5 36.5l110 631q4 20 4 39q0 24 -6 46q-10 40 -35.5 70.5t-62.5 48t-82 17.5h-84 q-43 0 -86 -17.5t-78 -46t-59.5 -68.5t-32.5 -83l-113 -637q-4 -23 -21.5 -37t-39.5 -14q-23 0 -35 14q-9 11 -9 26q0 5 1 11z" />
<glyph unicode="n" horiz-adv-x="1087" d="M164 51l160 903q4 23 21 37.5t40 14.5t36 -14.5t9 -37.5l-6 -34q104 86 233 86h136q68 0 123 -26t90.5 -69t52.5 -102q9 -34 9 -71q0 -27 -5 -56l-111 -631q-4 -23 -22.5 -37t-36.5 -14q-25 0 -38 14.5t-9 36.5l110 631q4 20 4 39q0 24 -6 46q-10 40 -35.5 70.5t-62.5 48 t-82 17.5h-135q-45 0 -87 -17.5t-77 -46t-59.5 -68.5t-32.5 -83l-113 -637q-4 -23 -21.5 -37t-39.5 -14q-23 0 -36 14t-9 37z" />
<glyph unicode="o" horiz-adv-x="1024" d="M186 393l39 221q14 78 56.5 150t107.5 127q63 57 141 86t158 29t146.5 -29t111.5 -86q45 -55 63 -127q10 -39 9 -81q0 -34 -6 -69l-39 -221q-14 -82 -57.5 -153.5t-107 -125t-140 -84t-156.5 -30.5q-82 0 -148.5 30.5t-110.5 84t-63 125.5q-10 40 -10 83q0 34 6 70z M291 393q-4 -27 -5 -51q0 -32 8 -62q13 -52 45 -92.5t81 -63t108 -22.5t115.5 22.5t104 62.5t80 92.5t42.5 113.5l39 221q4 24 5 48q0 31 -8 61q-13 53 -46 94q-72 86 -190 86q-117 0 -221 -86q-47 -41 -78 -94t-41 -109z" />
<glyph unicode="p" horiz-adv-x="989" d="M100 -309l224 1263q4 23 21 37.5t40 14.5t36 -14.5t9 -37.5l-14 -73q2 4 5 5t5 5q135 115 299 115q80 0 147.5 -29t110.5 -86q49 -55 66 -127q9 -38 8 -78q0 -35 -6 -72l-39 -221q-14 -82 -57.5 -153.5t-107 -125t-140 -84t-158.5 -30.5q-84 0 -153.5 31.5t-112.5 91.5 l-76 -432q-4 -23 -22.5 -37t-41.5 -14t-34 14q-9 11 -10 26q0 5 1 11zM330 393q-4 -27 -5 -51q0 -32 8 -62q13 -52 45 -92.5t80 -63t107 -22.5q61 0 117.5 22.5t104 62.5t79 92.5t41.5 113.5l39 221q4 24 5 48q0 31 -8 61q-13 53 -44 94q-72 86 -192 86q-121 0 -218 -86 q-49 -41 -79.5 -94t-40.5 -109z" />
<glyph unicode="q" horiz-adv-x="987" d="M109 393l38 221q14 78 56.5 150t107.5 127q63 57 141 86t158 29q86 0 153.5 -33t115.5 -92l14 73q4 23 20.5 37.5t38.5 14.5q23 0 35 -15q9 -11 9 -26q0 -5 -1 -11l-223 -1263q-4 -23 -21.5 -37t-39.5 -14q-23 0 -34 14t-7 37l75 432q-68 -59 -146.5 -91t-164.5 -32 q-82 0 -148.5 30.5t-110.5 84t-62 125.5q-10 40 -11 83q1 34 7 70zM213 393q-4 -27 -4 -51q0 -32 7 -62q13 -52 45 -92.5t81 -63t109 -22.5q59 0 115.5 22.5t103.5 62.5t79.5 92.5t43.5 113.5l38 221q6 27 6 54q0 30 -8 58q-14 52 -47.5 92t-82 62.5t-107.5 22.5 q-117 0 -221 -86q-47 -41 -78 -94t-41 -109z" />
<glyph unicode="r" horiz-adv-x="673" d="M164 51l160 903q4 23 22.5 37.5t36.5 14.5q25 0 38 -14.5t9 -37.5l-6 -30q106 82 231 82h140q23 0 34 -15q9 -11 10 -26q0 -5 -1 -11q-4 -23 -21.5 -37t-40.5 -14h-139q-43 0 -87 -16.5t-77 -46.5q-76 -68 -90 -154l-2 -12l-111 -623q-4 -23 -21.5 -37t-41.5 -14 q-18 0 -32.5 14t-10.5 37z" />
<glyph unicode="s" horiz-adv-x="827" d="M86 51q4 23 20.5 37t38.5 14h402q20 0 39.5 8.5t38.5 20.5q18 16 27.5 34.5t13.5 37.5q4 23 -1.5 41t-15.5 35l-362 374q-41 49 -41 112q0 19 4 40q14 84 86 143q68 61 156 62h350q23 0 36 -15q10 -11 10 -26q0 -31 -24 -49q-18 -14 -41 -15h-350q-41 0 -76 -31 q-35 -29 -41 -69q-4 -23 -1 -42.5t16 -31.5l362 -379q43 -46 43 -110q0 -19 -4 -39q-14 -82 -86 -144q-70 -59 -156 -59h-401q-23 0 -35 14q-9 11 -9 26q0 5 1 11z" />
<glyph unicode="t" horiz-adv-x="684" d="M207 393l194 1104q4 23 23.5 37t42.5 14q20 0 32.5 -14t8.5 -37l-86 -491h313q23 0 36 -15q10 -11 10 -26q0 -29 -23 -47q-18 -14 -41 -15h-314l-90 -510q-4 -27 -4 -51q0 -32 7 -62q13 -52 46 -92.5t81.5 -63t109.5 -22.5h96q20 0 33.5 -14t9.5 -37t-21.5 -37t-37.5 -14 h-96q-84 0 -151 30.5t-112 84t-63 125.5q-10 40 -10 83q0 34 6 70z" />
<glyph unicode="u" horiz-adv-x="1058" d="M199 324l112 630q4 23 21.5 37.5t38.5 14.5q23 0 36 -14.5t9 -37.5l-113 -630q-3 -19 -3 -37q0 -25 6 -48q11 -40 36 -71t61.5 -48.5t81.5 -17.5h105q45 0 87 16.5t76.5 46.5t60.5 68.5t34 81.5l113 639q4 23 22 37.5t41 14.5q20 0 33.5 -14.5t9.5 -37.5l-160 -903 q-4 -23 -21.5 -37t-37.5 -14q-23 0 -37 14.5t-10 36.5l6 33q-51 -41 -109.5 -62.5t-124.5 -21.5h-104q-68 0 -122 25.5t-92 68.5t-52 103q-8 35 -9 72q1 27 5 55z" />
<glyph unicode="v" horiz-adv-x="976" d="M242 934q-2 23 10 41t37 29q7 1 13 1q13 0 26 -6q18 -8 18 -30l158 -860l465 860q12 23 31 30q13 5 28 6q7 0 14 -1q18 -10 25 -29q2 -7 2 -15q0 -12 -6 -26l-488 -899q-16 -35 -55 -35h-65q-39 0 -47 35z" />
<glyph unicode="w" horiz-adv-x="1368" d="M281 940q0 20 14 39.5t35 24.5q23 4 40 -7.5t19 -29.5l60 -840l360 840q20 39 59 39q16 0 28.5 -11.5t14.5 -27.5l54 -838l354 838q8 18 27.5 29.5t42.5 7.5t28 -24q3 -8 3 -17q0 -11 -5 -23l-381 -899q-16 -41 -57 -41h-70q-41 0 -45 41l-45 690l-297 -690 q-18 -41 -59 -41h-66q-43 0 -49 41z" />
<glyph unicode="x" horiz-adv-x="964" d="M112 43q0 21 17 41l363 418l-218 416q-6 20 1.5 40.5t27.5 32.5q15 9 33 9q3 0 7 -1q22 -2 32 -22l198 -383l332 383q14 20 37 22q4 0 7 1q18 0 32 -9q15 -12 15 -30v-3q-1 -20 -17 -40l-361 -416l218 -418q10 -20 1.5 -43t-26.5 -35q-16 -7 -32 -7q-6 0 -12 1 q-22 4 -30 23l-196 385l-338 -385q-12 -18 -36 -23q-7 -1 -13 -1q-15 0 -25 7q-17 13 -17 37z" />
<glyph unicode="y" horiz-adv-x="1003" d="M209 -321q0 16 10 34l293 451l-244 766q-8 23 3.5 42t31.5 32q13 6 24 5q9 0 16 -3q17 -8 26 -29l221 -692l448 692q12 20 34 29q10 4 19 3q11 0 21 -5q18 -10 22 -31q1 -5 0 -10q0 -16 -8 -31l-817 -1264q-14 -20 -37 -28q-10 -4 -18 -4q-11 0 -21 6q-24 11 -24 37z" />
<glyph unicode="z" horiz-adv-x="862" d="M106 51l13 72q6 10 9 17t11 16l676 747h-504q-23 0 -36 14.5t-9 36.5q4 23 22.5 37.5t41.5 14.5h559q25 0 35 -15q9 -11 9 -26q0 -5 -1 -11l-12 -67q-4 -18 -15 -29l-682 -752l-2 -4h508q23 0 35 -14t8 -37t-20.5 -37t-38.5 -14h-559q-27 0 -35 14q-17 12 -13 37z" />
<glyph unicode="|" horiz-adv-x="438" d="M135 -113l314 1774q2 23 20 38t41 15t35 -15.5t10 -37.5l-313 -1774q-4 -23 -22.5 -37t-41.5 -14t-35 14t-8 37z" />
<glyph unicode="~" horiz-adv-x="1282" d="M375 690q-8 47 3 94t37.5 88t65.5 74t88 51q47 14 97.5 13.5t87.5 -23.5q84 -45 96 -135q8 -55 53 -76.5t105 -3.5q57 16 84 64q29 53 24 102q-4 23 9.5 44.5t35.5 29.5q16 4 34.5 -4.5t25.5 -30.5q8 -45 -1.5 -92t-39.5 -94q-25 -41 -69 -73t-89 -48q-49 -18 -95 -15.5 t-85 23t-65.5 55.5t-35.5 82q-4 29 -17 47.5t-34 28.5q-23 10 -46 12t-56 -8q-27 -10 -49.5 -27.5t-38 -41t-23.5 -50t-4 -53.5q2 -23 -10 -40t-29 -24q-23 -8 -39 1.5t-20 29.5z" />
<glyph unicode="&#xa3;" horiz-adv-x="1073" d="M246 229q-4 23 13 43.5t36 24.5q6 0 10 4h10q35 10 61.5 25.5t55.5 40.5q90 74 109 186q4 16 6 32.5t-2 30.5h-236q-16 0 -27.5 13.5t-7.5 34.5q4 16 19.5 31.5t32.5 15.5h188q-4 8 -8 13t-8 13q-41 47 -58 115h-90q-16 0 -27.5 13.5t-7.5 31.5q4 23 19.5 36t32.5 13h63 q-2 12 0 23.5t4 25.5q14 74 54 142.5t102 119.5q61 53 134 80t143.5 27t134 -26.5t108.5 -80.5q14 -14 10 -35.5t-22 -35.5q-20 -16 -41 -16.5t-33 16.5q-35 37 -80 56.5t-95 19.5t-101.5 -19.5t-94.5 -56.5q-92 -78 -114 -191q-2 -14 -2 -25.5t-2 -23.5h321q23 0 35 -13 t8 -36q-4 -18 -20.5 -31.5t-38.5 -13.5h-283l12 -21q6 -10 19 -18q18 -23 29.5 -48.5t21.5 -53.5h176q23 0 35 -15.5t8 -31.5q-4 -20 -20.5 -34t-38.5 -14h-146q0 -14 -2 -30.5t-6 -32.5q-23 -131 -113 -227q29 -8 80 -15l68 -14q51 -10 87 -4t59.5 18.5t34.5 23.5t13 11 q12 18 35 24.5t39 -3.5q18 -12 20.5 -33t-12.5 -37q-2 -4 -23.5 -26.5t-60 -46t-97 -37t-134.5 2.5l-72 15q-37 6 -63.5 11t-52 6t-53 -4t-66.5 -17q-4 0 -7 -1t-12 -5h-8q-6 -4 -14 -5q-18 0 -31.5 10.5t-15.5 28.5z" />
<glyph unicode="&#xa5;" horiz-adv-x="1214" d="M412 1298q-6 20 0 41t26 31q20 14 42 11t30 -21l250 -486l424 486q14 18 36.5 21t41.5 -11q14 -10 14 -30.5t-16 -41.5l-375 -434h125q23 0 33 -13t6 -32q-10 -51 -56 -51h-190l-8 -8l-27 -146h197q23 0 33 -12t6 -35q-4 -20 -18.5 -33.5t-37.5 -13.5h-196l-52 -295 q-4 -23 -23.5 -38t-41.5 -15q-16 0 -29.5 15.5t-9.5 37.5l51 295h-194q-18 0 -30.5 13.5t-8.5 33.5q4 23 20.5 35t34.5 12h195l26 146q-4 0 -4 4v4h-188q-18 0 -30.5 14.5t-8.5 36.5q4 18 20.5 31.5t34.5 13.5h123z" />
<glyph unicode="&#xa7;" horiz-adv-x="1222" d="M217 94q4 23 20.5 37t38.5 14q47 0 41 -51q-6 -29 1.5 -59.5t23.5 -54.5q37 -49 109 -50h299q33 0 63.5 13.5t56 36t43 52t23.5 62.5q6 35 -3 63.5t-28 53.5q-6 4 -29 30l-53 54l-71 72l-238 247l-106 113q-68 84 -50 201q10 53 38 103t73 85q35 27 64.5 40l60.5 26 l-88 96q-37 35 -49.5 84t-1.5 104q18 104 110 185q88 76 195 75h303q109 0 172 -75q68 -82 49 -185q-4 -23 -23.5 -38t-37.5 -15q-29 0 -39 15.5t-6 37.5q10 70 -31 113q-41 47 -100 47h-304q-29 0 -60.5 -12t-57.5 -35q-29 -23 -48.5 -51.5t-23.5 -61.5q-6 -35 3 -62.5 t30 -51.5l22 -22q18 -17 37 -38l49 -53l242 -254l147 -156q39 -39 51.5 -90t2.5 -106q-16 -90 -83 -158.5t-151 -91.5l84 -94q39 -39 52.5 -89t2.5 -106q-10 -55 -39.5 -103t-71.5 -85t-94.5 -57.5t-105.5 -20.5h-299q-115 0 -174 82q-64 69 -41 184zM457 928 q-6 -35 3 -64.5t29 -54.5l23 -23l37 -38l49 -54l80 -82l67 -71q35 -37 62 -62h39q66 0 120 44t64 110q6 35 -3 63.5t-28 57.5l-81 82l-72 69l-53 64q-23 29 -52 59l-57 59h-37q-29 0 -60.5 -13t-56.5 -36q-29 -20 -48 -50.5t-25 -59.5z" />
<glyph unicode="&#xa9;" horiz-adv-x="1388" d="M242 778q20 123 85.5 230.5t160 187.5t209 126t237.5 46q121 0 220 -46t164.5 -126t92.5 -187.5t6 -230.5q-23 -121 -87 -228.5t-158.5 -188t-209 -128t-235.5 -47.5q-123 0 -221 47.5t-165 128t-94.5 188t-4.5 228.5zM338 778q-18 -102 4.5 -191t76.5 -157t137 -106.5 t187 -38.5q102 0 198.5 38.5t175.5 106.5t133.5 157t72.5 191t-5.5 192.5t-77.5 157t-137 105.5t-185 39q-104 0 -200.5 -39t-175.5 -105.5t-132.5 -157t-71.5 -192.5zM537 684l32 186q10 53 39 101.5t71 84.5t93 56.5t107 20.5h110q20 0 35.5 -16.5t11.5 -33.5 q-4 -18 -23.5 -31.5t-39.5 -13.5h-111q-35 0 -67.5 -14t-60 -36.5t-46 -53.5t-24.5 -64l-33 -186q-10 -68 29.5 -116t109.5 -48h111q20 0 35.5 -14t11.5 -35q-4 -20 -23.5 -33.5t-40.5 -13.5h-110q-55 0 -99.5 20.5t-73 55.5t-41.5 82t-3 102z" />
<glyph unicode="&#xaa;" d="M141 322q12 66 47 124t88 105q53 45 117 69.5t129 24.5h172h51q41 0 74 27q31 27 37 67l2 6l4 29q3 14 3 27q0 38 -23 65q-14 16 -35 26.5t-47 10.5h-94h-43h-250q-25 0 -37 14.5t-8 36.5q4 23 21.5 37.5t41.5 14.5h250h43h94q45 0 85 -16.5t67 -49.5q43 -51 43 -120 q0 -22 -4 -46l-29 -160l-98 -563q-4 -23 -20.5 -37t-39.5 -14t-37 14.5t-10 36.5l6 33q-104 -84 -231 -84h-100q-68 0 -122.5 25.5t-91 68.5t-52.5 102q-9 32 -8 67q0 29 5 59zM248 322q-4 -20 -4 -40q0 -24 6 -45q10 -40 33.5 -70t60.5 -47.5t82 -17.5h100q43 0 86 17.5 t78 46.5q76 66 92 156l43 243q-25 -16 -49 -21t-49 -5h-51h-172q-92 0 -166 -62.5t-90 -154.5z" />
<glyph unicode="&#xab;" horiz-adv-x="980" d="M147 774q4 23 27 41l500 361q18 12 38.5 10t30.5 -19q14 -16 6 -37.5t-26 -33.5l-438 -322l323 -321q14 -16 15.5 -37t-19.5 -37q-14 -16 -36.5 -19.5t-35.5 13.5l-372 360q-15 23 -13 41zM475 774q4 23 27 41l499 361q18 12 39 10t31 -19q14 -16 6 -37.5t-26 -33.5 l-439 -322l324 -321q14 -16 15 -37t-19 -37q-14 -16 -37 -19.5t-35 13.5l-373 360q-14 23 -12 41z" />
<glyph unicode="&#xad;" horiz-adv-x="866" d="M236 774q4 23 23.5 37t41.5 14h543q18 0 31.5 -14t9.5 -37t-22.5 -37t-37.5 -14h-542q-23 0 -37 14t-10 37z" />
<glyph unicode="&#xae;" horiz-adv-x="1355" d="M225 778q20 123 87 230.5t161 187.5t210 126t239 46q121 0 219 -46t163.5 -126t92 -187.5t6.5 -230.5q-23 -121 -87.5 -228.5t-157.5 -188t-207.5 -128t-235.5 -47.5q-123 0 -222.5 47.5t-166 128t-95.5 188t-6 228.5zM319 778q-18 -102 4.5 -191t78 -157t140.5 -106.5 t189 -38.5q100 0 196.5 38.5t175.5 106.5t133 157t73 191q18 102 -5.5 192.5t-78 157t-137 105.5t-183.5 39q-104 0 -202.5 -39t-177.5 -105.5t-133.5 -157t-72.5 -192.5zM539 471l47 270l2 7v6l59 329q4 16 22.5 33t39.5 17h202q41 0 78 -18.5t60 -47.5q33 -31 42 -70 t1 -86q-8 -43 -32 -81.5t-65 -67.5q-18 -16 -37.5 -31.5t-44.5 -23.5l101 -209q8 -20 0 -38t-23 -26q-53 -23 -71 17l-115 243h-131l-39 -223q-4 -20 -19.5 -33.5t-31.5 -13.5q-20 0 -34.5 13.5t-10.5 33.5zM692 791h160q51 0 92 34q20 20 34.5 42t18.5 44q4 25 -2 47.5 t-22 38.5q-31 41 -78 41h-160z" />
<glyph unicode="&#xb0;" horiz-adv-x="460" d="M344 1688q10 61 62.5 105t115.5 44q59 0 96 -44t27 -105q-6 -31 -22.5 -57.5t-38.5 -49.5q-53 -45 -115 -45q-63 0 -100 45q-35 48 -25 107zM420 1688q-4 -27 14 -52q8 -10 20.5 -15t28.5 -5q12 0 26.5 5t25.5 15q27 20 32 52q4 29 -13 50t-46 21q-31 0 -57.5 -21 t-30.5 -50z" />
<glyph unicode="&#xb2;" horiz-adv-x="1075" d="M61 27q-6 29 17 57l977 1049v2h2q47 53 57 114q14 78 -33 140q-47 57 -125 57h-585q-18 0 -32.5 14.5t-10.5 36.5q4 23 23.5 37t37.5 14h586q59 0 110.5 -21.5t85.5 -64.5q35 -41 46.5 -96t1.5 -117q-8 -47 -32 -93t-61 -87l-897 -967h746q23 0 37 -13t10 -38 q-4 -23 -22.5 -37t-41.5 -14h-852q-35 0 -45 27z" />
<glyph unicode="&#xb3;" horiz-adv-x="1056" d="M20 51q4 23 21.5 37t40.5 14h520q47 0 92 18.5t82 50.5t62.5 74t33.5 91l29 153q14 90 -30 155t-130 75h-417q-25 0 -35 15.5t-6 37.5v2q10 51 61 51h418q88 14 155.5 78t81.5 152l29 155q8 49 -3 91t-36.5 73t-63.5 49.5t-85 18.5h-521q-23 0 -36 16.5t-9 34.5 q4 25 22.5 40t41.5 15h520q68 0 124 -26.5t94 -72.5t54.5 -107.5t4.5 -131.5l-29 -155q-14 -88 -69.5 -163t-133.5 -118q61 -45 90 -119.5t15 -165.5l-29 -153q-12 -70 -49 -131.5t-91.5 -106.5t-120 -71.5t-132.5 -26.5h-520q-23 0 -36.5 14t-9.5 37z" />
<glyph unicode="&#xb9;" horiz-adv-x="423" d="M166 51l246 1395h-99q-23 0 -37 14.5t-10 36.5q4 23 23.5 37t42.5 14h149q23 0 34 -14t7 -37l-254 -1446q-4 -23 -20.5 -37t-38.5 -14q-23 0 -35 14t-8 37z" />
<glyph unicode="&#xba;" horiz-adv-x="479" d="M410 1784q10 61 62 105t116 44q59 0 96 -44t27 -105q-6 -31 -22.5 -57.5t-39.5 -49.5q-53 -45 -114 -45q-63 0 -101 45q-34 48 -24 107zM485 1784q-4 -27 17 -51q6 -10 18 -15.5t29 -5.5q12 0 26.5 5t26.5 16q25 20 31 51q6 29 -12.5 50t-47.5 21q-31 0 -56.5 -21 t-31.5 -50z" />
<glyph unicode="&#xbb;" horiz-adv-x="966" d="M149.5 415.5q6.5 20.5 24.5 37.5l438 321l-323 322q-14 12 -13.5 33.5t17.5 37.5q18 16 39.5 18.5t36.5 -9.5l372 -361q4 -8 7.5 -19.5t1.5 -21.5t-8.5 -20.5t-14.5 -20.5l-500 -360q-20 -16 -39.5 -13.5t-33.5 19.5q-11 16 -4.5 36.5zM477 415.5q6 20.5 25 37.5l438 321 l-324 322q-14 12 -13 33.5t18 37.5q18 16 39.5 18.5t35.5 -9.5l373 -361q4 -8 7 -19.5t1 -21.5t-8 -20.5t-14 -20.5l-500 -360q-20 -16 -39.5 -13.5t-34.5 19.5q-10 16 -4 36.5z" />
<glyph unicode="&#xbc;" horiz-adv-x="2467" d="M1456 651q8 49 41 101.5t80 95.5l2 4l770 680q20 16 43 16h90q23 0 34 -14t7 -37l-172 -979h45q25 0 37 -15.5t10 -37.5q-4 -20 -22.5 -35.5t-42.5 -15.5h-45l-64 -363q-4 -23 -20.5 -37t-38.5 -14q-23 0 -35 14.5t-8 36.5l63 363h-579q-49 0 -89 19.5t-66 51t-38 74.5 t-2 92zM1560 651q-10 -53 23 -93t86 -40h580l163 928h-18l-750 -666q-33 -31 -56.5 -65.5t-27.5 -63.5zM1540 1542q20 -10 23.5 -30.5t-9.5 -41.5l-997 -1443q-14 -18 -35.5 -25.5t-40.5 0.5q-16 10 -20 31.5t10 40.5l997 1446q18 20 39 24t33 -2zM166 51l246 1395h-99 q-23 0 -37 14.5t-10 36.5q4 23 23.5 37t42.5 14h149q23 0 34 -14t7 -37l-254 -1446q-4 -23 -20.5 -37t-38.5 -14q-23 0 -35 14t-8 37z" />
<glyph unicode="&#xbd;" horiz-adv-x="2404" d="M1390 27q-6 29 17 57l977 1049v2h2q47 53 57 114q14 78 -33 140q-47 57 -125 57h-585q-18 0 -32.5 14.5t-10.5 36.5q4 23 23.5 37t37.5 14h586q59 0 110.5 -21.5t85.5 -64.5q35 -41 46.5 -96t1.5 -117q-8 -47 -32 -93t-61 -87l-897 -967h746q23 0 37 -13t10 -38 q-4 -23 -22.5 -37t-41.5 -14h-852q-35 0 -45 27zM1540 1542q20 -10 23.5 -30.5t-9.5 -41.5l-997 -1443q-14 -18 -35.5 -25.5t-40.5 0.5q-16 10 -20 31.5t10 40.5l997 1446q18 20 39 24t33 -2zM166 51l246 1395h-99q-23 0 -37 14.5t-10 36.5q4 23 23.5 37t42.5 14h149 q23 0 34 -14t7 -37l-254 -1446q-4 -23 -20.5 -37t-38.5 -14q-23 0 -35 14t-8 37z" />
<glyph unicode="&#xbe;" horiz-adv-x="3100" d="M2089 651q8 49 41 101.5t80 95.5l2 4l770 680q20 16 43 16h90q23 0 34 -14t7 -37l-172 -979h45q25 0 37 -15.5t10 -37.5q-4 -20 -22.5 -35.5t-42.5 -15.5h-45l-64 -363q-4 -23 -20.5 -37t-38.5 -14q-23 0 -35 14.5t-8 36.5l63 363h-579q-49 0 -89 19.5t-66 51t-38 74.5 t-2 92zM2193 651q-10 -53 23 -93t86 -40h580l163 928h-18l-750 -666q-33 -31 -56.5 -65.5t-27.5 -63.5zM2173 1542q20 -10 23.5 -30.5t-9.5 -41.5l-997 -1443q-14 -18 -35.5 -25.5t-40.5 0.5q-16 10 -20 31.5t10 40.5l997 1446q18 20 39 24t33 -2zM20 51q4 23 21.5 37 t40.5 14h520q47 0 92 18.5t82 50.5t62.5 74t33.5 91l29 153q14 90 -30 155t-130 75h-417q-25 0 -35 15.5t-6 37.5v2q10 51 61 51h418q88 14 155.5 78t81.5 152l29 155q8 49 -3 91t-36.5 73t-63.5 49.5t-85 18.5h-521q-23 0 -36 16.5t-9 34.5q4 25 22.5 40t41.5 15h520 q68 0 124 -26.5t94 -72.5t54.5 -107.5t4.5 -131.5l-29 -155q-14 -88 -69.5 -163t-133.5 -118q61 -45 90 -119.5t15 -165.5l-29 -153q-12 -70 -49 -131.5t-91.5 -106.5t-120 -71.5t-132.5 -26.5h-520q-23 0 -36.5 14t-9.5 37z" />
<glyph unicode="&#xbf;" horiz-adv-x="847" d="M72 365q12 76 53 142t98.5 115.5t129 78t147.5 28.5q80 0 147 53q33 31 52.5 66t27.5 76l23 125q4 25 23.5 40t37.5 15q25 0 37 -15.5t8 -39.5l-22 -125q-10 -59 -43 -115.5t-80 -97.5q-104 -88 -230 -88q-53 0 -104 -20.5t-92 -55.5t-71 -82t-38 -100q-10 -53 2 -101.5 t41 -84.5t73 -56.5t97 -20.5h408q23 0 35 -14t8 -37t-20.5 -37t-39.5 -14h-407q-76 0 -138.5 27.5t-102.5 77t-57 116t-3 144.5zM825 1477q4 23 22.5 37t37.5 14q25 0 38 -14.5t9 -36.5q-4 -23 -22.5 -37.5t-43.5 -14.5q-18 0 -31.5 14.5t-9.5 37.5z" />
<glyph unicode="&#xc0;" horiz-adv-x="1413" d="M77 29.5q-7 19.5 3 40.5l751 1443q20 37 56 37h160q37 0 45 -37l243 -1443q4 -20 -9 -40t-36 -28t-40 2t-19 33l-82 473h-729l-244 -473q-12 -23 -33.5 -33t-40.5 -2q-18 8 -25 27.5zM479 616h654l-142 830h-84zM911 1776.5q4 21.5 25 38.5q16 14 37.5 15t34.5 -15 l63 -78q14 -16 9 -37t-21 -35q-20 -16 -42 -17t-34 13l-63 78q-13 16 -9 37.5z" />
<glyph unicode="&#xc1;" horiz-adv-x="1413" d="M77 29.5q-7 19.5 3 40.5l751 1443q20 37 56 37h160q37 0 45 -37l243 -1443q4 -20 -9 -40t-36 -28t-40 2t-19 33l-82 473h-729l-244 -473q-12 -23 -33.5 -33t-40.5 -2q-18 8 -25 27.5zM479 616h654l-142 830h-84zM933 1702.5q3 21.5 19 38.5l92 76q18 16 40 15t36 -17 q10 -14 8 -36t-20 -36l-92 -78q-20 -16 -40 -15t-32 15q-14 16 -11 37.5z" />
<glyph unicode="&#xc2;" horiz-adv-x="1413" d="M77 29.5q-7 19.5 3 40.5l751 1443q20 37 56 37h160q37 0 45 -37l243 -1443q4 -20 -9 -40t-36 -28t-40 2t-19 33l-82 473h-729l-244 -473q-12 -23 -33.5 -33t-40.5 -2q-18 8 -25 27.5zM479 616h654l-142 830h-84zM737 1776.5q4 21.5 25 38.5q16 14 37.5 15t34.5 -15 l63 -78q14 -16 9 -37t-21 -35q-20 -16 -42 -17t-34 13l-64 78q-12 16 -8 37.5zM1072 1702.5q3 21.5 20 38.5l92 76q18 16 39.5 15t36.5 -17q10 -14 8 -36t-21 -36l-92 -78q-20 -16 -39.5 -15t-32.5 15q-14 16 -11 37.5z" />
<glyph unicode="&#xc3;" horiz-adv-x="1413" d="M77 29.5q-7 19.5 3 40.5l751 1443q20 37 56 37h160q37 0 45 -37l243 -1443q4 -20 -9 -40t-36 -28t-40 2t-19 33l-82 473h-729l-244 -473q-12 -23 -33.5 -33t-40.5 -2q-18 8 -25 27.5zM479 616h654l-142 830h-84zM713 1730.5q8 32.5 26.5 61.5t47 51.5t61.5 32.5 q35 10 68.5 10t62.5 -16q23 -16 41 -41t22 -53q6 -27 30 -38.5t52 -0.5q29 6 50 30q6 8 10 23.5t0 30.5q-4 20 6 38.5t31 26.5q16 4 35.5 -3t23.5 -30q2 -29 -3 -62.5t-28 -61.5q-37 -63 -108 -82q-68 -18 -125.5 8t-67.5 92q-6 23 -28 37q-4 4 -18.5 5t-31.5 -5 q-27 -8 -45 -33t-14 -53q4 -18 -7 -38t-30 -26q-18 -8 -35.5 1.5t-23.5 29.5q-10 33 -2 65.5z" />
<glyph unicode="&#xc4;" horiz-adv-x="1429" d="M93 29.5q-5 19.5 3 40.5l752 1443q20 37 55 37h160q37 0 45 -37l242 -1443q6 -20 -7.5 -40t-35.5 -28q-25 -8 -41.5 2t-20.5 33l-82 473h-725l-245 -473q-14 -23 -35 -33t-37 -2q-23 8 -28 27.5zM492 616h655l-139 830h-84zM678 1604q4 23 21.5 38t39.5 15q23 0 36 -15.5 t9 -37.5q-4 -23 -22.5 -38.5t-40.5 -15.5q-23 0 -35 15.5t-8 38.5zM1200 1604q4 23 21.5 38t40.5 15t36 -15.5t9 -37.5q-4 -23 -22.5 -38.5t-41.5 -15.5t-35 15.5t-8 38.5z" />
<glyph unicode="&#xc5;" horiz-adv-x="1390" d="M77 29.5q-7 19.5 3 40.5l751 1443q20 37 56 37h160q37 0 45 -37l243 -1443q4 -20 -9 -40t-36 -28t-40 2t-19 33l-82 473h-729l-244 -473q-12 -23 -33.5 -33t-40.5 -2q-18 8 -25 27.5zM479 616h654l-142 830h-84zM856 1784q10 61 62.5 105t115.5 44q59 0 96 -44t27 -105 q-6 -31 -22.5 -57.5t-38.5 -49.5q-53 -45 -115 -45q-63 0 -100 45q-35 48 -25 107zM932 1784q-4 -27 16 -51q6 -10 18.5 -15.5t28.5 -5.5q12 0 26.5 5t27.5 16q25 20 30 51q6 29 -12 50t-47 21q-31 0 -56.5 -21t-31.5 -50z" />
<glyph unicode="&#xc7;" horiz-adv-x="1024" d="M209 557l78 440q20 115 81.5 216.5t148.5 176t195.5 117.5t225.5 43h279q49 0 43 -51q-4 -23 -21.5 -39t-40.5 -16h-278q-92 0 -180.5 -35t-159 -96.5t-120.5 -142t-67 -173.5l-78 -440q-16 -92 2.5 -174t71.5 -141q53 -66 127 -102t166 -36h279q23 0 35 -14t8 -37 t-21.5 -39t-40.5 -16h-182q-16 0 -30.5 -13.5t-18.5 -31.5q0 -8 2 -17.5t10 -13.5q12 -16 31 -16q53 0 85.5 -38t22.5 -97t-56 -98.5t-99 -39.5h-93q-18 0 -29.5 13.5t-6.5 31.5q4 18 19 32t34 14h92q16 0 31.5 13t19.5 34q4 23 -7 36t-28 13q-27 0 -51 11t-45 28 q-33 35 -22 94q6 27 20 51q-104 4 -191.5 44t-146.5 118q-133 162 -94 391z" />
<glyph unicode="&#xc8;" horiz-adv-x="1134" d="M164 51l254 1446q4 23 21.5 38t39.5 15h867q23 0 35 -15t8 -38t-21.5 -37t-40.5 -14h-815l-96 -545h719q23 0 35 -15.5t8 -37.5q-2 -23 -20.5 -38t-41.5 -15h-719l-121 -689h816q23 0 35 -16t8 -39t-21.5 -37t-40.5 -14h-866q-23 0 -35 14t-8 37zM850 1776.5 q4 21.5 24 38.5q16 14 38 15t34 -15l64 -78q14 -16 9 -37t-22 -35q-20 -16 -41.5 -17t-33.5 13l-64 78q-12 16 -8 37.5z" />
<glyph unicode="&#xc9;" horiz-adv-x="1134" d="M164 51l254 1446q4 23 21.5 38t39.5 15h867q23 0 35 -15t8 -38t-21.5 -37t-40.5 -14h-815l-96 -545h719q23 0 35 -15.5t8 -37.5q-2 -23 -20.5 -38t-41.5 -15h-719l-121 -689h816q23 0 35 -16t8 -39t-21.5 -37t-40.5 -14h-866q-23 0 -35 14t-8 37zM886 1713.5 q3 21.5 19 37.5l92 76q18 16 40 15t36 -17q10 -14 8 -36t-22 -36l-90 -78q-20 -16 -40 -15t-32 15q-14 17 -11 38.5z" />
<glyph unicode="&#xca;" horiz-adv-x="1134" d="M164 51l254 1446q4 23 21.5 38t39.5 15h867q23 0 35 -15t8 -38t-21.5 -37t-40.5 -14h-815l-96 -545h719q23 0 35 -15.5t8 -37.5q-2 -23 -20.5 -38t-41.5 -15h-719l-121 -689h816q23 0 35 -16t8 -39t-21.5 -37t-40.5 -14h-866q-23 0 -35 14t-8 37zM706.5 1776.5 q4.5 21.5 24.5 38.5q16 14 38 15t34 -15l63 -78q14 -16 9 -37t-21 -35q-20 -16 -41.5 -17t-34.5 13l-63 78q-13 16 -8.5 37.5zM1041 1702.5q3 21.5 20 38.5l92 76q18 16 39.5 15t36.5 -17q10 -14 8 -36t-20 -36l-93 -78q-20 -16 -39.5 -15t-31.5 15q-15 16 -12 37.5z" />
<glyph unicode="&#xcb;" horiz-adv-x="1134" d="M164 51l254 1446q4 23 21.5 38t39.5 15h867q23 0 35 -15t8 -38t-21.5 -37t-40.5 -14h-815l-96 -545h719q23 0 35 -15.5t8 -37.5q-2 -23 -20.5 -38t-41.5 -15h-719l-121 -689h816q23 0 35 -16t8 -39t-21.5 -37t-40.5 -14h-866q-23 0 -35 14t-8 37zM766 1710q4 23 20.5 37 t38.5 14q23 0 36 -14t9 -37t-22.5 -37t-40.5 -14q-23 0 -34 14t-7 37zM1094 1710q4 23 20 37t39 14t36 -14t9 -37t-22.5 -37t-40.5 -14q-23 0 -34 14t-7 37z" />
<glyph unicode="&#xcc;" horiz-adv-x="438" d="M164 51l254 1446q4 23 22.5 38t40.5 15q23 0 35 -15t8 -38l-254 -1446q-4 -23 -21.5 -37t-39.5 -14q-23 0 -36 14t-9 37zM399 1776.5q4 21.5 25 38.5q16 14 37.5 15t34.5 -15l63 -78q14 -16 9 -37t-21 -35q-20 -16 -42 -17t-34 13l-63 78q-13 16 -9 37.5z" />
<glyph unicode="&#xcd;" horiz-adv-x="438" d="M164 51l254 1446q4 23 22.5 38t40.5 15q23 0 35 -15t8 -38l-254 -1446q-4 -23 -21.5 -37t-39.5 -14q-23 0 -36 14t-9 37zM462 1702.5q3 21.5 19 38.5l92 76q18 16 40 15t36 -17q10 -14 8 -36t-20 -36l-92 -78q-20 -16 -40 -15t-32 15q-14 16 -11 37.5z" />
<glyph unicode="&#xce;" horiz-adv-x="438" d="M164 51l254 1446q4 23 22.5 38t40.5 15q23 0 35 -15t8 -38l-254 -1446q-4 -23 -21.5 -37t-39.5 -14q-23 0 -36 14t-9 37zM297 1776.5q4 21.5 25 38.5q16 14 37.5 15t33.5 -15l64 -78q14 -16 9 -37t-22 -35q-20 -16 -41.5 -17t-33.5 13l-64 78q-12 16 -8 37.5zM570 1702.5 q3 21.5 20 38.5l92 76q18 16 39.5 15t36.5 -17q10 -14 8 -36t-21 -36l-92 -78q-20 -16 -39.5 -15t-31.5 15q-15 16 -12 37.5z" />
<glyph unicode="&#xcf;" horiz-adv-x="438" d="M164 51l254 1446q4 23 22.5 38t40.5 15q23 0 35 -15t8 -38l-254 -1446q-4 -23 -21.5 -37t-39.5 -14q-23 0 -36 14t-9 37zM354 1710q4 23 20.5 37t39.5 14t36 -14t9 -37t-22.5 -37t-41.5 -14t-34 14t-7 37zM559 1710q4 23 20.5 37t38.5 14q23 0 36.5 -14t9.5 -37 t-22.5 -37t-41.5 -14t-34 14t-7 37z" />
<glyph unicode="&#xd1;" horiz-adv-x="1406" d="M164 55l254 1440q4 23 23.5 39t45.5 16h125q16 0 28.5 -6t16.5 -22l461 -1411h49l244 1384q4 23 20.5 39t38.5 16q23 0 35.5 -16t7.5 -39l-253 -1440q-4 -23 -21.5 -39t-40.5 -16h-131q-35 0 -43 31l-463 1417h-45l-246 -1393q-4 -23 -19 -39t-36 -16q-27 0 -41 16 t-10 39zM762 1730.5q8 32.5 26.5 61.5t47 51.5t61.5 32.5q35 10 68.5 10t62.5 -16q23 -16 41 -41t23 -53q6 -27 29.5 -38.5t52.5 -0.5q29 6 49 30q6 8 10 23.5t0 30.5q-4 20 6 38.5t31 26.5q16 4 35.5 -3t23.5 -30q2 -29 -3 -62.5t-28 -61.5q-37 -63 -108 -82 q-68 -18 -125 8t-68 92q-6 23 -28 37q-4 4 -18.5 5t-30.5 -5q-27 -8 -45.5 -33t-14.5 -53q4 -18 -7 -38t-30 -26q-18 -8 -35.5 1.5t-23.5 29.5q-10 33 -2 65.5z" />
<glyph unicode="&#xd2;" horiz-adv-x="1351" d="M219 553l78 444q20 115 81.5 215.5t149.5 176t197 118.5t223 43q113 0 206 -41t159 -118q63 -80 86.5 -181.5t3.5 -212.5l-78 -444q-20 -115 -80.5 -215t-149.5 -175t-196.5 -119t-222.5 -44t-209 44t-155.5 119t-87 175t-5.5 215zM326 553q-16 -92 4 -173t71.5 -142.5 t126 -96.5t166.5 -35t180.5 35t160 96.5t120.5 142.5t66 173l77 444q16 90 -3 172t-72 144q-51 66 -126 99.5t-167 33.5t-179 -35t-160 -96.5t-122 -143t-66 -174.5zM891 1776.5q4 21.5 24 38.5q16 14 38 15t34 -15l64 -78q14 -16 9 -37t-22 -35q-20 -16 -41.5 -17t-33.5 13 l-64 78q-12 16 -8 37.5z" />
<glyph unicode="&#xd3;" horiz-adv-x="1351" d="M219 553l78 444q20 115 81.5 215.5t149.5 176t197 118.5t223 43q113 0 206 -41t159 -118q63 -80 86.5 -181.5t3.5 -212.5l-78 -444q-20 -115 -80.5 -215t-149.5 -175t-196.5 -119t-222.5 -44t-209 44t-155.5 119t-87 175t-5.5 215zM326 553q-16 -92 4 -173t71.5 -142.5 t126 -96.5t166.5 -35t180.5 35t160 96.5t120.5 142.5t66 173l77 444q16 90 -3 172t-72 144q-51 66 -126 99.5t-167 33.5t-179 -35t-160 -96.5t-122 -143t-66 -174.5zM892 1702.5q3 21.5 19 38.5l93 76q18 16 39.5 15t35.5 -17q10 -14 8 -36t-20 -36l-92 -78q-20 -16 -40 -15 t-32 15q-14 16 -11 37.5z" />
<glyph unicode="&#xd4;" horiz-adv-x="1351" d="M219 553l78 444q20 115 81.5 215.5t149.5 176t197 118.5t223 43q113 0 206 -41t159 -118q63 -80 86.5 -181.5t3.5 -212.5l-78 -444q-20 -115 -80.5 -215t-149.5 -175t-196.5 -119t-222.5 -44t-209 44t-155.5 119t-87 175t-5.5 215zM326 553q-16 -92 4 -173t71.5 -142.5 t126 -96.5t166.5 -35t180.5 35t160 96.5t120.5 142.5t66 173l77 444q16 90 -3 172t-72 144q-51 66 -126 99.5t-167 33.5t-179 -35t-160 -96.5t-122 -143t-66 -174.5zM727 1776.5q4 21.5 25 38.5q16 14 37.5 15t33.5 -15l64 -78q14 -16 9 -37t-22 -35q-20 -16 -41.5 -17 t-33.5 13l-64 78q-12 16 -8 37.5zM1062 1702.5q3 21.5 19 38.5l93 76q18 16 39.5 15t35.5 -17q10 -14 8 -36t-20 -36l-92 -78q-20 -16 -40 -15t-32 15q-14 16 -11 37.5z" />
<glyph unicode="&#xd5;" horiz-adv-x="1351" d="M219 553l78 444q20 115 81.5 215.5t149.5 176t197 118.5t223 43q113 0 206 -41t159 -118q63 -80 86.5 -181.5t3.5 -212.5l-78 -444q-20 -115 -80.5 -215t-149.5 -175t-196.5 -119t-222.5 -44t-209 44t-155.5 119t-87 175t-5.5 215zM326 553q-16 -92 4 -173t71.5 -142.5 t126 -96.5t166.5 -35t180.5 35t160 96.5t120.5 142.5t66 173l77 444q16 90 -3 172t-72 144q-51 66 -126 99.5t-167 33.5t-179 -35t-160 -96.5t-122 -143t-66 -174.5zM713 1730.5q8 32.5 26.5 61.5t47 51.5t61.5 32.5q35 10 68.5 10t62.5 -16q23 -16 41 -41t22 -53 q6 -27 30 -38.5t52 -0.5q29 6 50 30q6 8 10 23.5t0 30.5q-4 20 6 38.5t31 26.5q16 4 35.5 -3t23.5 -30q2 -29 -3 -62.5t-28 -61.5q-37 -63 -108 -82q-68 -18 -125.5 8t-67.5 92q-6 23 -28 37q-4 4 -18.5 5t-31.5 -5q-27 -8 -45 -33t-14 -53q4 -18 -7 -38t-30 -26 q-18 -8 -35.5 1.5t-23.5 29.5q-10 33 -2 65.5z" />
<glyph unicode="&#xd6;" horiz-adv-x="1361" d="M223 553l78 444q20 115 82.5 215.5t151 176t196 118.5t221.5 43q115 0 209 -43t155.5 -118.5t87.5 -176t5 -215.5l-78 -444q-20 -115 -81.5 -215t-149.5 -175t-196.5 -119t-223.5 -44q-111 0 -204 41t-159 119q-66 80 -89 181t-5 212zM330 553q-16 -92 2 -172t74 -143 q51 -66 126.5 -99t165.5 -33q92 0 180.5 35t160 96.5t121.5 142.5t67 173l78 444q16 90 -4.5 172t-69.5 144q-111 133 -297 133q-92 0 -179 -35t-160 -96.5t-122 -143t-65 -174.5zM514 1602q4 23 21.5 38t39.5 15q23 0 35.5 -15.5t7.5 -37.5q-4 -23 -21 -37.5t-40 -14.5 t-35 14.5t-8 37.5zM1307 1602q4 23 21.5 38t39.5 15q23 0 35 -15.5t8 -37.5q-4 -23 -21.5 -37.5t-39.5 -14.5q-23 0 -35 14.5t-8 37.5z" />
<glyph unicode="&#xd7;" horiz-adv-x="829" d="M184 419.5q0 18.5 17 35.5l295 344l-177 338q-6 18 -0.5 35.5t23.5 25.5q16 10 33.5 8t25.5 -18l162 -316l273 316q12 16 30.5 18t32.5 -8q14 -8 13 -25.5t-17 -35.5l-297 -338l180 -344q8 -16 2 -35t-20 -27q-18 -10 -35.5 -8t-26.5 18l-161 318l-277 -318 q-10 -16 -29.5 -18t-31.5 8q-15 8 -15 26.5z" />
<glyph unicode="&#xd8;" horiz-adv-x="1351" d="M137 44q2 24 21 40l118 141q-41 70 -55 152t2 174l80 455q20 111 80.5 210t149 173.5t197 117.5t222.5 43q111 0 199 -38.5t154 -104.5l98 119q18 16 38.5 20t41.5 -8q16 -12 15 -35.5t-13 -36.5l-125 -141q39 -70 52 -150.5t-3 -168.5l-80 -455q-20 -115 -80.5 -214 t-148.5 -175t-196.5 -119t-223.5 -43q-111 0 -199 40t-151 105l-105 -125q-12 -16 -34.5 -21t-40.5 11q-15 10 -13 34zM326 551q-23 -133 30 -234l871 1002q-53 63 -128 96t-165 33q-92 0 -180 -36t-161 -96.5t-122 -141t-65 -168.5zM408 233q51 -61 124.5 -91.5 t165.5 -30.5t179.5 34.5t159 94t120.5 139.5t66 172l80 455q10 59 3.5 117.5t-28.5 109.5z" />
<glyph unicode="&#xd9;" horiz-adv-x="1384" d="M236 553l165 944q4 23 22.5 38t41.5 15t35 -15t8 -38l-166 -944q-16 -92 4.5 -173t71.5 -142.5t125.5 -96.5t167.5 -35q92 0 180 35t159.5 96.5t122 142.5t66.5 173l166 944q4 23 21.5 38t39.5 15q23 0 34 -15t7 -38l-166 -944q-20 -115 -80.5 -215t-148.5 -175 t-196.5 -119t-223.5 -44t-208 44t-154.5 119t-87.5 175t-6 215zM891 1776.5q4 21.5 24 38.5q16 14 38 15t34 -15l64 -78q14 -16 9 -37t-22 -35q-20 -16 -41.5 -17t-33.5 13l-64 78q-12 16 -8 37.5z" />
<glyph unicode="&#xda;" horiz-adv-x="1384" d="M236 553l165 944q4 23 22.5 38t41.5 15t35 -15t8 -38l-166 -944q-16 -92 4.5 -173t71.5 -142.5t125.5 -96.5t167.5 -35q92 0 180 35t159.5 96.5t122 142.5t66.5 173l166 944q4 23 21.5 38t39.5 15q23 0 34 -15t7 -38l-166 -944q-20 -115 -80.5 -215t-148.5 -175 t-196.5 -119t-223.5 -44t-208 44t-154.5 119t-87.5 175t-6 215zM933 1702.5q3 21.5 19 38.5l92 76q18 16 40 15t36 -17q10 -14 8 -36t-20 -36l-92 -78q-20 -16 -40 -15t-32 15q-14 16 -11 37.5z" />
<glyph unicode="&#xdb;" horiz-adv-x="1384" d="M236 553l165 944q4 23 22.5 38t41.5 15t35 -15t8 -38l-166 -944q-16 -92 4.5 -173t71.5 -142.5t125.5 -96.5t167.5 -35q92 0 180 35t159.5 96.5t122 142.5t66.5 173l166 944q4 23 21.5 38t39.5 15q23 0 34 -15t7 -38l-166 -944q-20 -115 -80.5 -215t-148.5 -175 t-196.5 -119t-223.5 -44t-208 44t-154.5 119t-87.5 175t-6 215zM747.5 1776.5q4.5 21.5 24.5 38.5q16 14 37.5 15t34.5 -15l63 -78q14 -16 9 -37t-21 -35q-20 -16 -42 -17t-34 13l-63 78q-13 16 -8.5 37.5zM1082 1702.5q3 21.5 20 38.5l92 76q18 16 39.5 15t36.5 -17 q10 -14 8 -36t-21 -36l-92 -78q-20 -16 -39.5 -15t-31.5 15q-15 16 -12 37.5z" />
<glyph unicode="&#xdc;" horiz-adv-x="1384" d="M236 553l165 944q4 23 22.5 38t41.5 15t35 -15t8 -38l-166 -944q-16 -92 4.5 -173t71.5 -142.5t125.5 -96.5t167.5 -35q92 0 180 35t159.5 96.5t122 142.5t66.5 173l166 944q4 23 21.5 38t39.5 15q23 0 34 -15t7 -38l-166 -944q-20 -115 -80.5 -215t-148.5 -175 t-196.5 -119t-223.5 -44t-208 44t-154.5 119t-87.5 175t-6 215zM786 1708q4 23 20.5 38t39.5 15t36 -15t9 -38t-22.5 -37t-41.5 -14t-34 14t-7 37zM1114 1708q4 23 20.5 38t39.5 15t36 -15t9 -38t-22.5 -37t-41.5 -14t-34 14t-7 37z" />
<glyph unicode="&#xdd;" horiz-adv-x="1214" d="M323.5 1507.5q8.5 22.5 26.5 34.5q23 10 42.5 6t31.5 -20l338 -656l571 656q12 16 35 20t39 -6q16 -12 15 -34.5t-13 -39.5l-612 -706l-125 -711q-4 -23 -21.5 -37t-40.5 -14t-36 14.5t-9 36.5l125 711q-4 4 -5 7t-5 7l-352 692q-13 17 -4.5 39.5zM853 1702.5 q3 21.5 19 38.5l93 76q18 16 39.5 15t35.5 -17q10 -14 8.5 -36t-20.5 -36l-92 -78q-20 -16 -39.5 -15t-32.5 15q-14 16 -11 37.5z" />
<glyph unicode="&#xdf;" horiz-adv-x="1157" d="M158 55l196 1112l4 21q12 76 53.5 141.5t98.5 114.5t128 77.5t144 28.5q76 0 137.5 -28.5t103.5 -77.5t58.5 -114.5t3.5 -141.5l-4 -21q-14 -82 -61 -153.5t-115 -122.5q57 -14 102.5 -48t73 -80t37.5 -103.5t0 -120.5l-31 -168q-14 -78 -55 -145.5t-99.5 -118t-129 -79 t-144.5 -28.5h-155q-18 0 -32.5 16.5t-10.5 38.5q4 23 23.5 39.5t37.5 16.5h156q51 0 102 20.5t94.5 55t72 81.5t38.5 103l31 168q8 55 -4.5 102t-43 82t-74.5 55.5t-95 20.5h-150q-23 0 -35 16t-8 37q4 23 21.5 38t40.5 15q55 0 106 20.5t93 56.5t71 83t39 102l4 21 q8 53 -3 100t-41 83t-74 56.5t-99 20.5q-53 0 -103.5 -20.5t-90.5 -56.5t-68.5 -83t-36.5 -100l-4 -21l-197 -1112q-4 -23 -22.5 -39t-40.5 -16q-20 0 -33.5 16t-9.5 39z" />
<glyph unicode="&#xe0;" d="M141 322q12 66 47 124t88 105q53 45 117 69.5t129 24.5h172h51q41 0 74 27q31 27 37 67l2 6l4 29q10 55 -20 92q-14 16 -35 26.5t-47 10.5h-94h-43h-250q-25 0 -37 14.5t-8 36.5q4 23 21.5 37.5t41.5 14.5h250h43h94q45 0 85 -16.5t67 -49.5q57 -68 39 -166l-29 -160 l-98 -563q-4 -23 -20.5 -37t-39.5 -14t-37 14.5t-10 36.5l6 33q-104 -84 -231 -84h-100q-68 0 -122.5 25.5t-91 68.5t-52 101.5t-3.5 126.5zM248 322q-8 -45 2 -85t33.5 -70t60.5 -47.5t82 -17.5h100q43 0 86 17.5t78 46.5q76 66 92 156l43 243q-25 -16 -49 -21t-49 -5h-51 h-172q-92 0 -166 -62.5t-90 -154.5zM608 1267.5q4 20.5 23 35.5q18 16 39.5 17t36.5 -13l61 -78q14 -16 9 -38t-23 -38q-16 -14 -39 -15t-33 15l-66 78q-12 16 -8 36.5z" />
<glyph unicode="&#xe1;" d="M141 322q12 66 47 124t88 105q53 45 117 69.5t129 24.5h172h51q41 0 74 27q31 27 37 67l2 6l4 29q10 55 -20 92q-14 16 -35 26.5t-47 10.5h-94h-43h-250q-25 0 -37 14.5t-8 36.5q4 23 21.5 37.5t41.5 14.5h250h43h94q45 0 85 -16.5t67 -49.5q57 -68 39 -166l-29 -160 l-98 -563q-4 -23 -20.5 -37t-39.5 -14t-37 14.5t-10 36.5l6 33q-104 -84 -231 -84h-100q-68 0 -122.5 25.5t-91 68.5t-52 101.5t-3.5 126.5zM248 322q-8 -45 2 -85t33.5 -70t60.5 -47.5t82 -17.5h100q43 0 86 17.5t78 46.5q76 66 92 156l43 243q-25 -16 -49 -21t-49 -5h-51 h-172q-92 0 -166 -62.5t-90 -154.5zM662.5 1192.5q3.5 21.5 19.5 38.5l92 76q18 16 40 15t36 -17q12 -14 9 -36t-21 -36l-93 -78q-18 -16 -38.5 -15t-32.5 15q-15 16 -11.5 37.5z" />
<glyph unicode="&#xe2;" d="M113 322q12 68 48 126t87 102t113.5 69.5t130.5 25.5h172h53q41 0 73.5 26.5t38.5 67.5l2 6l5 29q10 53 -21 91t-84 38h-94h-43h-252q-23 0 -35 14.5t-8 36.5q4 23 21.5 37.5t39.5 14.5h252h43h95q47 0 85.5 -18.5t65.5 -49.5t37 -73t2 -91l-127 -723q-4 -23 -20.5 -37 t-38.5 -14q-23 0 -36 14.5t-9 36.5l6 33q-109 -84 -234 -84h-102q-68 0 -122 25.5t-90 68.5t-51 101.5t-3 126.5zM219 322q-8 -45 1 -85t34 -70t60.5 -47.5t80.5 -17.5h103q43 0 86 17.5t78 46.5q76 68 90 156l43 243q-20 -14 -46 -20t-51 -6h-53h-172q-45 0 -87 -17.5 t-77 -46.5t-58.5 -68.5t-31.5 -84.5zM395 1137.5q0 21.5 21 38.5l237 239q27 18 45 19q23 0 37 -19l156 -239q8 -16 3 -38t-24 -34q-20 -16 -40.5 -12t-30.5 20l-125 184l-191 -184q-18 -16 -39.5 -20.5t-33.5 12.5q-15 12 -15 33.5z" />
<glyph unicode="&#xe3;" horiz-adv-x="892" d="M113 322q12 68 48 126t87 102t113.5 69.5t130.5 25.5h172h53q41 0 73.5 26.5t38.5 67.5l2 6l5 29q10 53 -21 91t-84 38h-94h-43h-252q-23 0 -35 14.5t-8 36.5q4 23 21.5 37.5t39.5 14.5h252h43h95q47 0 85.5 -18.5t65.5 -49.5t37 -73t2 -91l-127 -723q-4 -23 -20.5 -37 t-38.5 -14q-23 0 -36 14.5t-9 36.5l6 33q-109 -84 -234 -84h-102q-68 0 -122 25.5t-90 68.5t-51 101.5t-3 126.5zM219 322q-8 -45 1 -85t34 -70t60.5 -47.5t80.5 -17.5h103q43 0 86 17.5t78 46.5q76 68 90 156l43 243q-20 -14 -46 -20t-51 -6h-53h-172q-45 0 -87 -17.5 t-77 -46.5t-58.5 -68.5t-31.5 -84.5zM385 1198q8 33 26.5 61.5t47 51t61.5 32.5q35 10 70 10.5t63 -16.5q23 -16 40.5 -40.5t23.5 -53.5q6 -27 28.5 -38t51.5 -1q27 6 49 31q6 8 10 23.5t0 29.5q-4 20 6 39t31 27q18 4 36.5 -3.5t22.5 -29.5q2 -29 -3 -62.5t-27 -62.5 q-37 -63 -109 -82q-68 -18 -125 8.5t-67 91.5q-6 23 -29 37q-4 4 -18.5 5t-30.5 -5q-27 -8 -45.5 -32.5t-14.5 -53.5q4 -18 -7 -37.5t-30 -25.5q-18 -8 -35.5 1t-23.5 30q-10 32 -2 65z" />
<glyph unicode="&#xe4;" horiz-adv-x="919" d="M113 322q12 68 48 126t87 102t113.5 69.5t130.5 25.5h172h53q41 0 73.5 26.5t38.5 67.5l2 6l5 29q10 53 -21 91t-84 38h-94h-43h-252q-23 0 -35 14.5t-8 36.5q4 23 21.5 37.5t39.5 14.5h252h43h95q47 0 85.5 -18.5t65.5 -49.5t37 -73t2 -91l-127 -723q-4 -23 -20.5 -37 t-38.5 -14q-23 0 -36 14.5t-9 36.5l6 33q-109 -84 -234 -84h-102q-68 0 -122 25.5t-90 68.5t-51 101.5t-3 126.5zM219 322q-8 -45 1 -85t34 -70t60.5 -47.5t80.5 -17.5h103q43 0 86 17.5t78 46.5q76 68 90 156l43 243q-20 -14 -46 -20t-51 -6h-53h-172q-45 0 -87 -17.5 t-77 -46.5t-58.5 -68.5t-31.5 -84.5zM371 1182q4 23 21.5 38t39.5 15q23 0 35 -15.5t8 -37.5q-4 -23 -21.5 -37.5t-39.5 -14.5q-23 0 -35 14.5t-8 37.5zM803 1182q4 23 21.5 38t39.5 15q23 0 35 -15.5t8 -37.5q-4 -23 -21.5 -37.5t-39.5 -14.5q-23 0 -35 14.5t-8 37.5z" />
<glyph unicode="&#xe5;" horiz-adv-x="931" d="M125 322q12 68 48 126t87 102t113.5 69.5t130.5 25.5h172h51q41 0 74 26.5t39 67.5l2 6l4 29q10 53 -20.5 91t-82.5 38h-94h-43h-254q-23 0 -34 14.5t-7 36.5q4 23 20.5 37.5t39.5 14.5h254h43h94q47 0 86 -18.5t65.5 -49.5t37 -73t1.5 -91l-127 -723q-4 -23 -21.5 -37 t-37.5 -14q-23 0 -37 14.5t-10 36.5l6 33q-104 -84 -231 -84h-103q-68 0 -122 25.5t-90 68.5t-51 101.5t-3 126.5zM231 322q-8 -45 1.5 -85t34 -70t60 -47.5t81.5 -17.5h102q45 0 87 17.5t81 46.5q66 55 86 137l45 262q-45 -27 -100 -26h-52h-172q-92 0 -165 -62.5 t-89 -154.5zM553 1282q10 61 62.5 105.5t115.5 44.5t98 -44.5t25 -105.5q-6 -31 -23.5 -58.5t-37.5 -49.5q-55 -43 -115 -44q-63 0 -100 43t-25 109zM631 1282q-6 -31 11 -53.5t48 -22.5q12 0 26.5 6.5t26.5 14.5q27 25 33 55q4 29 -12 50.5t-47 21.5t-56.5 -21.5 t-29.5 -50.5z" />
<glyph unicode="&#xe6;" horiz-adv-x="1579" d="M125 322q12 68 47 127t86 103t113.5 69.5t128.5 25.5h325l23 127q10 55 -23.5 93t-83.5 38h-98h-43h-252q-20 0 -31.5 15.5t-9.5 31.5q4 25 22.5 43.5t39.5 18.5h252h43h98q72 0 124 -43t70 -107q59 63 145.5 106.5t184.5 43.5q152 0 252 -119q45 -57 62.5 -130t3.5 -151 q-4 -20 -3 -17q-3 -26 -19.5 -43t-45.5 -15q-96 0 -203 2q-92 0 -202.5 1t-221.5 1l-24 -148q-10 -61 1 -112.5t39.5 -90t75 -60t103.5 -21.5h274q23 0 37.5 -16.5t9.5 -39.5q-4 -23 -23.5 -39t-41.5 -16h-275q-80 0 -144 31.5t-105 87.5q-6 12 -15.5 24.5t-13.5 24.5 l-35 -35q-18 -18 -35 -33q-57 -47 -118.5 -73.5t-133.5 -26.5h-98q-66 0 -120 25.5t-89 69.5t-50 102.5t-3 124.5zM229 322q-8 -43 2.5 -82t34 -68t59 -45t81.5 -16h98q98 0 170 63q35 31 61.5 70t32.5 78l39 221h-326q-45 0 -87 -17.5t-75.5 -47t-57.5 -70.5t-32 -86z M928 647l575 -6q0 49 -17.5 97t-39.5 81q-31 43 -78 64.5t-102 21.5t-108.5 -20.5t-98.5 -55t-79 -82t-52 -100.5z" />
<glyph unicode="&#xe7;" horiz-adv-x="817" d="M173 266.5q-11 63.5 1 132.5l39 222q14 80 58 151.5t107.5 125.5t141.5 85t162 31h186q25 0 35 -15.5t6 -35.5q-4 -23 -19.5 -38.5t-39.5 -15.5h-186q-61 0 -119 -23.5t-105 -62.5t-79.5 -92t-43.5 -110l-38 -222q-10 -61 3 -114.5t45.5 -93t82 -63.5t110.5 -24h187 q25 0 36 -15t7 -36q-4 -23 -19.5 -38t-40.5 -15h-162q-14 0 -29.5 -13.5t-19.5 -27.5q-2 -14 10 -33q4 -6 11.5 -7t17.5 -1q27 0 49.5 -11t39 -29.5t23.5 -43t3 -53.5q-6 -29 -21.5 -53.5t-38 -43t-49 -28.5t-53.5 -10h-90q-20 0 -30.5 12t-6.5 31q4 20 18.5 33.5t34.5 13.5 h90q16 0 29.5 13t18.5 32q2 14 -7.5 27.5t-25.5 13.5q-53 0 -90 41q-31 39 -21 96q4 14 7 26.5t12 24.5q-63 16 -112.5 53t-81.5 88.5t-43 115z" />
<glyph unicode="&#xe8;" d="M186 393l39 221q14 78 55.5 150t110.5 127q66 57 142.5 86t156.5 29q164 0 258 -115q45 -55 62.5 -127t3.5 -150l-17 -100q-4 -23 -22.5 -38t-40.5 -15h-631l-12 -68q-10 -61 3 -113.5t46 -92.5t81 -62.5t109 -22.5h224q23 0 35 -14t8 -37t-20.5 -37t-39.5 -14h-223 q-82 0 -148.5 30.5t-111.5 84t-63.5 125t-4.5 153.5zM322 565h577l8 49q10 55 -2 108.5t-45 94.5q-68 86 -188 86q-59 0 -115.5 -22.5t-103.5 -63.5q-49 -41 -81 -94t-42 -109zM621.5 1285.5q5.5 21.5 23.5 37.5q18 14 40 15t32 -15l65 -78q12 -16 8 -36.5t-20 -34.5 q-20 -16 -41.5 -17.5t-36.5 12.5l-61 78q-15 17 -9.5 38.5z" />
<glyph unicode="&#xe9;" d="M186 393l39 221q14 78 55.5 150t110.5 127q66 57 142.5 86t156.5 29q164 0 258 -115q45 -55 62.5 -127t3.5 -150l-17 -100q-4 -23 -22.5 -38t-40.5 -15h-631l-12 -68q-10 -61 3 -113.5t46 -92.5t81 -62.5t109 -22.5h224q23 0 35 -14t8 -37t-20.5 -37t-39.5 -14h-223 q-82 0 -148.5 30.5t-111.5 84t-63.5 125t-4.5 153.5zM322 565h577l8 49q10 55 -2 108.5t-45 94.5q-68 86 -188 86q-59 0 -115.5 -22.5t-103.5 -63.5q-49 -41 -81 -94t-42 -109zM687 1213.5q3 21.5 20 37.5l92 76q18 16 39.5 15t35.5 -17q10 -14 8.5 -35.5t-22.5 -36.5 l-90 -77q-20 -16 -40.5 -15.5t-31.5 15.5q-14 16 -11 37.5z" />
<glyph unicode="&#xea;" d="M186 393l39 221q14 78 55.5 150t110.5 127q66 57 142.5 86t156.5 29q164 0 258 -115q45 -55 62.5 -127t3.5 -150l-17 -100q-4 -23 -22.5 -38t-40.5 -15h-631l-12 -68q-10 -61 3 -113.5t46 -92.5t81 -62.5t109 -22.5h224q23 0 35 -14t8 -37t-20.5 -37t-39.5 -14h-223 q-82 0 -148.5 30.5t-111.5 84t-63.5 125t-4.5 153.5zM322 565h577l8 49q10 55 -2 108.5t-45 94.5q-68 86 -188 86q-59 0 -115.5 -22.5t-103.5 -63.5q-49 -41 -81 -94t-42 -109zM471 1137.5q0 21.5 21 38.5l237 239q27 18 45 19q23 0 37 -19l156 -239q8 -16 3 -38t-24 -34 q-20 -16 -40.5 -12t-31.5 20l-124 184l-191 -184q-18 -16 -39.5 -20.5t-34.5 12.5q-14 12 -14 33.5z" />
<glyph unicode="&#xeb;" d="M186 393l39 221q14 78 55.5 150t110.5 127q66 57 142.5 86t156.5 29q164 0 258 -115q45 -55 62.5 -127t3.5 -150l-17 -100q-4 -23 -22.5 -38t-40.5 -15h-631l-12 -68q-10 -61 3 -113.5t46 -92.5t81 -62.5t109 -22.5h224q23 0 35 -14t8 -37t-20.5 -37t-39.5 -14h-223 q-82 0 -148.5 30.5t-111.5 84t-63.5 125t-4.5 153.5zM322 565h577l8 49q10 55 -2 108.5t-45 94.5q-68 86 -188 86q-59 0 -115.5 -22.5t-103.5 -63.5q-49 -41 -81 -94t-42 -109zM430 1182q4 23 21.5 38t40.5 15t35 -15.5t8 -37.5q-4 -23 -21.5 -37.5t-40.5 -14.5t-35 14.5 t-8 37.5zM903 1182q4 23 21.5 38t40.5 15t35 -15.5t8 -37.5q-4 -23 -21.5 -37.5t-40.5 -14.5t-35 14.5t-8 37.5z" />
<glyph unicode="&#xec;" horiz-adv-x="366" d="M131 55l160 899q4 23 20.5 37.5t38.5 14.5q23 0 36 -14.5t9 -37.5l-159 -899q-4 -25 -21.5 -39t-40.5 -14q-51 0 -43 53zM255 1285.5q5 21.5 24 37.5q18 14 39.5 15t31.5 -15l66 -78q12 -16 8 -36.5t-21 -34.5q-20 -16 -41.5 -17.5t-35.5 12.5l-62 78q-14 17 -9 38.5z " />
<glyph unicode="&#xed;" horiz-adv-x="366" d="M131 55l160 899q4 23 20.5 37.5t38.5 14.5q23 0 36 -14.5t9 -37.5l-159 -899q-4 -25 -21.5 -39t-40.5 -14q-51 0 -43 53zM347 1192.5q3 21.5 20 38.5l92 76q18 16 39.5 15t36.5 -17q12 -14 9 -36t-22 -36l-92 -78q-18 -16 -38.5 -15t-33.5 15q-14 16 -11 37.5z" />
<glyph unicode="&#xee;" horiz-adv-x="366" d="M121 1137.5q0 21.5 20 38.5l238 239q27 18 45 19q23 0 37 -19l155 -239q8 -16 3 -38t-23 -34q-20 -16 -40.5 -12t-31.5 20l-125 184l-190 -184q-18 -16 -40 -20.5t-34 12.5q-14 12 -14 33.5zM131 55l160 899q4 23 20.5 37.5t38.5 14.5q23 0 36 -14.5t9 -37.5l-159 -899 q-4 -25 -21.5 -39t-40.5 -14q-51 0 -43 53z" />
<glyph unicode="&#xef;" horiz-adv-x="366" d="M131 55l160 899q4 23 20.5 37.5t38.5 14.5q23 0 36 -14.5t9 -37.5l-159 -899q-4 -25 -21.5 -39t-40.5 -14q-51 0 -43 53zM225 1182q4 23 21.5 38t40.5 15t35 -15.5t8 -37.5q-4 -23 -21.5 -37.5t-40.5 -14.5t-35 14.5t-8 37.5zM434 1182q4 23 21.5 38t40.5 15t35 -15.5 t8 -37.5q-4 -23 -21.5 -37.5t-40.5 -14.5t-35 14.5t-8 37.5z" />
<glyph unicode="&#xf1;" horiz-adv-x="1087" d="M164 55l80 449q-2 0 -2 2v2l30 176q0 2 2 4q0 2 1 3t1 3l46 258q4 25 22 43.5t41 18.5q20 0 32.5 -18.5t8.5 -43.5l-4 -24q49 37 108.5 61.5t126.5 24.5h136q66 0 120 -26.5t90.5 -71t52 -104.5t3.5 -128l-111 -629q-4 -23 -21.5 -39t-41.5 -16q-18 0 -32.5 16.5 t-10.5 38.5l110 629q8 45 -1 85t-33.5 70.5t-62.5 48t-83 17.5h-135q-45 0 -87 -16.5t-78 -46t-59.5 -67.5t-31.5 -81l-113 -639q-4 -23 -22.5 -39t-38.5 -16q-23 0 -35 16t-8 39zM480 1202q7 33 26.5 61.5t47.5 51t62 33.5q35 10 69 10t63 -17q23 -16 40 -40.5t23 -53.5 q6 -27 28.5 -38t53.5 -1q12 4 24.5 10.5t22.5 20.5q6 8 10 23.5t2 29.5q-6 20 5.5 39t29.5 27q18 4 36.5 -3t25.5 -30q0 -29 -5.5 -62.5t-25.5 -62.5q-41 -63 -109 -82q-68 -18 -125 8.5t-69 92.5q-4 23 -27 36q-4 4 -18.5 5.5t-30.5 -5.5q-27 -8 -46.5 -32.5t-14.5 -53.5 q4 -18 -7.5 -37.5t-27.5 -25.5q-18 -8 -37 1t-25 30q-8 32 -1 65z" />
<glyph unicode="&#xf2;" horiz-adv-x="1024" d="M158 393l39 221q14 78 56 150t107 127q68 57 145 86t154 29q80 0 146.5 -29t112.5 -86q45 -55 63 -127t4 -150l-39 -221q-14 -82 -57 -153.5t-106.5 -125t-140.5 -84t-159 -30.5t-148.5 30.5t-110.5 84t-62 125t-4 153.5zM264 393q-10 -61 3.5 -113.5t45 -92.5 t79.5 -62.5t108 -22.5q59 0 115.5 22.5t103.5 62.5t79.5 92.5t43.5 113.5l39 221q10 55 -3.5 108.5t-46.5 94.5q-72 86 -190 86q-121 0 -217 -86q-49 -41 -80 -94t-41 -109zM621.5 1285.5q5.5 21.5 23.5 37.5q18 14 40 15t32 -15l65 -78q12 -16 8 -36.5t-20 -34.5 q-20 -16 -41.5 -17.5t-36.5 12.5l-61 78q-15 17 -9.5 38.5z" />
<glyph unicode="&#xf3;" horiz-adv-x="1024" d="M158 393l39 221q14 78 56 150t107 127q68 57 145 86t154 29q80 0 146.5 -29t112.5 -86q45 -55 63 -127t4 -150l-39 -221q-14 -82 -57 -153.5t-106.5 -125t-140.5 -84t-159 -30.5t-148.5 30.5t-110.5 84t-62 125t-4 153.5zM264 393q-10 -61 3.5 -113.5t45 -92.5 t79.5 -62.5t108 -22.5q59 0 115.5 22.5t103.5 62.5t79.5 92.5t43.5 113.5l39 221q10 55 -3.5 108.5t-46.5 94.5q-72 86 -190 86q-121 0 -217 -86q-49 -41 -80 -94t-41 -109zM662.5 1192.5q3.5 21.5 19.5 38.5l92 76q18 16 40 15t36 -17q12 -14 9 -36t-21 -36l-93 -78 q-18 -16 -38.5 -15t-32.5 15q-15 16 -11.5 37.5z" />
<glyph unicode="&#xf4;" horiz-adv-x="1024" d="M158 393l39 221q14 78 56 150t107 127q68 57 145 86t154 29q80 0 146.5 -29t112.5 -86q45 -55 63 -127t4 -150l-39 -221q-14 -82 -57 -153.5t-106.5 -125t-140.5 -84t-159 -30.5t-148.5 30.5t-110.5 84t-62 125t-4 153.5zM264 393q-10 -61 3.5 -113.5t45 -92.5 t79.5 -62.5t108 -22.5q59 0 115.5 22.5t103.5 62.5t79.5 92.5t43.5 113.5l39 221q10 55 -3.5 108.5t-46.5 94.5q-72 86 -190 86q-121 0 -217 -86q-49 -41 -80 -94t-41 -109zM432 1137.5q0 21.5 21 38.5l237 239q27 18 45 19q23 0 37 -19l156 -239q8 -16 3 -38t-24 -34 q-20 -16 -40.5 -12t-30.5 20l-125 184l-191 -184q-18 -16 -39.5 -20.5t-34.5 12.5q-14 12 -14 33.5z" />
<glyph unicode="&#xf5;" horiz-adv-x="1005" d="M176 393l39 221q14 78 56 150t108 127q68 57 144.5 86t154.5 29q80 0 146.5 -29t111.5 -86q45 -55 63.5 -127t4.5 -150l-39 -221q-14 -82 -57.5 -153.5t-107 -125t-140 -84t-158.5 -30.5t-148.5 30.5t-110.5 84t-62.5 125t-4.5 153.5zM283 393q-10 -61 3 -113.5 t44.5 -92.5t80 -62.5t107.5 -22.5t115.5 22.5t103.5 62.5t80 92.5t43 113.5l39 221q10 55 -3 108.5t-46 94.5q-72 86 -191 86q-121 0 -217 -86q-49 -41 -79.5 -94t-40.5 -109zM440.5 1198q8.5 33 26.5 61.5t47 51t61 32.5q35 10 70 10.5t64 -16.5q23 -16 40 -40.5t23 -53.5 q6 -27 28.5 -38t51.5 -1q27 6 49 31q6 8 10 23.5t0 29.5q-4 20 6.5 39t30.5 27q18 4 37 -3.5t23 -29.5q2 -29 -3.5 -62.5t-27.5 -62.5q-37 -63 -109 -82q-68 -18 -125 8.5t-67 91.5q-6 23 -29 37q-4 4 -18.5 5t-30.5 -5q-27 -8 -45 -32.5t-14 -53.5q4 -18 -7.5 -37.5 t-29.5 -25.5q-18 -8 -35.5 1t-24.5 30q-10 32 -1.5 65z" />
<glyph unicode="&#xf6;" horiz-adv-x="968" d="M158 393l39 221q14 78 56 150t107 127q68 57 145 86t154 29q80 0 146.5 -29t112.5 -86q45 -55 63 -127t4 -150l-39 -221q-14 -82 -57 -153.5t-106.5 -125t-140.5 -84t-159 -30.5t-148.5 30.5t-110.5 84t-62 125t-4 153.5zM264 393q-10 -61 3.5 -113.5t45 -92.5 t79.5 -62.5t108 -22.5q59 0 115.5 22.5t103.5 62.5t79.5 92.5t43.5 113.5l39 221q10 55 -3.5 108.5t-46.5 94.5q-72 86 -190 86q-121 0 -217 -86q-49 -41 -80 -94t-41 -109zM403 1182q4 23 21.5 38t40.5 15t35 -15.5t8 -37.5q-4 -23 -21.5 -37.5t-40.5 -14.5t-35 14.5 t-8 37.5zM877 1182q4 23 21 38t40 15t35 -15.5t8 -37.5q-4 -23 -21.5 -37.5t-39.5 -14.5q-23 0 -35 14.5t-8 37.5z" />
<glyph unicode="&#xf7;" horiz-adv-x="915" d="M37 33.5q-4 21.5 10 40.5l997 1446q12 23 35 27.5t37 -5.5q20 -10 23.5 -30.5t-9.5 -41.5l-997 -1443q-14 -18 -35.5 -25.5t-40.5 0.5q-16 10 -20 31.5z" />
<glyph unicode="&#xf8;" horiz-adv-x="1024" d="M143 8q-27 35 4 76l76 80q-27 49 -35 109.5t2 119.5l39 221q14 84 59.5 157t109 127t141 85t161.5 31q139 0 230 -92l63 71q39 33 80 11q16 -16 13 -37t-17 -39l-78 -80q57 -102 33 -234l-39 -221q-14 -80 -57 -150.5t-111 -127.5q-133 -115 -295 -115q-72 0 -132 24.5 t-105 65.5l-64 -72q-16 -14 -38 -17t-40 7zM295 322.5q4 -35.5 14 -64.5l543 584q-35 31 -78 48t-92 17q-61 0 -118.5 -22.5t-104.5 -62.5t-80 -93t-43 -115l-39 -221q-6 -35 -2 -70.5zM362 170q35 -31 79 -48.5t98 -17.5q57 0 114.5 23t103.5 62.5t77.5 92t42.5 111.5 l38 221q8 37 6.5 74t-16.5 66z" />
<glyph unicode="&#xf9;" horiz-adv-x="1058" d="M199 324l112 630q4 23 21.5 37.5t38.5 14.5q23 0 36 -14.5t9 -37.5l-113 -630q-8 -45 3 -85t36 -71t61.5 -48.5t81.5 -17.5h105q45 0 87 16.5t76.5 46.5t60.5 68.5t34 81.5l113 639q4 23 22 37.5t41 14.5q20 0 33.5 -14.5t9.5 -37.5l-160 -903q-4 -23 -21.5 -37 t-37.5 -14q-23 0 -37 14.5t-10 36.5l6 33q-51 -41 -109.5 -62.5t-124.5 -21.5h-104q-68 0 -122 25.5t-92 68.5t-52 102.5t-4 127.5zM662.5 1285.5q5.5 21.5 23.5 37.5q18 14 40 15t32 -15l65 -78q12 -16 8 -36.5t-20 -34.5q-20 -16 -41.5 -17.5t-36.5 12.5l-61 78 q-15 17 -9.5 38.5z" />
<glyph unicode="&#xfa;" horiz-adv-x="1058" d="M199 324l112 630q4 23 21.5 37.5t38.5 14.5q23 0 36 -14.5t9 -37.5l-113 -630q-8 -45 3 -85t36 -71t61.5 -48.5t81.5 -17.5h105q45 0 87 16.5t76.5 46.5t60.5 68.5t34 81.5l113 639q4 23 22 37.5t41 14.5q20 0 33.5 -14.5t9.5 -37.5l-160 -903q-4 -23 -21.5 -37 t-37.5 -14q-23 0 -37 14.5t-10 36.5l6 33q-51 -41 -109.5 -62.5t-124.5 -21.5h-104q-68 0 -122 25.5t-92 68.5t-52 102.5t-4 127.5zM683 1192.5q3 21.5 19 38.5l93 76q18 16 39.5 15t35.5 -17q12 -14 9.5 -36t-21.5 -36l-92 -78q-18 -16 -38.5 -15t-33.5 15q-14 16 -11 37.5 z" />
<glyph unicode="&#xfb;" horiz-adv-x="1058" d="M199 324l112 630q4 23 21.5 37.5t38.5 14.5q23 0 36 -14.5t9 -37.5l-113 -630q-8 -45 3 -85t36 -71t61.5 -48.5t81.5 -17.5h105q45 0 87 16.5t76.5 46.5t60.5 68.5t34 81.5l113 639q4 23 22 37.5t41 14.5q20 0 33.5 -14.5t9.5 -37.5l-160 -903q-4 -23 -21.5 -37 t-37.5 -14q-23 0 -37 14.5t-10 36.5l6 33q-51 -41 -109.5 -62.5t-124.5 -21.5h-104q-68 0 -122 25.5t-92 68.5t-52 102.5t-4 127.5zM485 1137.5q0 21.5 21 38.5l237 239q27 18 45 19q23 0 37 -19l156 -239q8 -16 3 -38t-23 -34q-20 -16 -41 -12t-31 20l-125 184l-191 -184 q-18 -16 -39.5 -20.5t-33.5 12.5q-15 12 -15 33.5z" />
<glyph unicode="&#xfc;" horiz-adv-x="1058" d="M199 324l112 630q4 23 21.5 37.5t38.5 14.5q23 0 36 -14.5t9 -37.5l-113 -630q-8 -45 3 -85t36 -71t61.5 -48.5t81.5 -17.5h105q45 0 87 16.5t76.5 46.5t60.5 68.5t34 81.5l113 639q4 23 22 37.5t41 14.5q20 0 33.5 -14.5t9.5 -37.5l-160 -903q-4 -23 -21.5 -37 t-37.5 -14q-23 0 -37 14.5t-10 36.5l6 33q-51 -41 -109.5 -62.5t-124.5 -21.5h-104q-68 0 -122 25.5t-92 68.5t-52 102.5t-4 127.5zM455 1182q4 23 21.5 38t39.5 15q23 0 35 -15.5t8 -37.5q-4 -23 -21.5 -37.5t-39.5 -14.5q-23 0 -35 14.5t-8 37.5zM895 1182q4 23 21.5 38 t39.5 15q23 0 35.5 -15.5t7.5 -37.5q-4 -23 -21 -37.5t-40 -14.5t-35 14.5t-8 37.5z" />
<glyph unicode="&#xfd;" horiz-adv-x="1003" d="M210 -328.5q-3 19.5 9 41.5l293 451l-244 766q-8 23 3.5 42t31.5 32q23 10 40 1.5t26 -28.5l221 -692l448 692q12 20 34 28.5t40 -1.5t21.5 -31t-7.5 -41l-817 -1264q-14 -20 -36.5 -28.5t-39.5 2.5q-20 10 -23 29.5zM724 1192.5q3 21.5 19 38.5l93 76q18 16 39.5 15 t35.5 -17q12 -14 9.5 -36t-21.5 -36l-92 -78q-18 -16 -38.5 -15t-33.5 15q-14 16 -11 37.5z" />
<glyph unicode="&#xff;" horiz-adv-x="1003" d="M210 -328.5q-3 19.5 9 41.5l293 451l-244 766q-8 23 3.5 42t31.5 32q23 10 40 1.5t26 -28.5l221 -692l448 692q12 20 34 28.5t40 -1.5t21.5 -31t-7.5 -41l-817 -1264q-14 -20 -36.5 -28.5t-39.5 2.5q-20 10 -23 29.5zM539 1182q4 23 21.5 38t39.5 15q23 0 35 -15.5 t8 -37.5q-4 -23 -21.5 -37.5t-39.5 -14.5q-23 0 -35 14.5t-8 37.5zM872 1182q4 23 21.5 38t40.5 15t35 -15.5t8 -37.5q-4 -23 -21.5 -37.5t-40.5 -14.5t-35 14.5t-8 37.5z" />
<glyph unicode="&#x152;" horiz-adv-x="2486" d="M1516 51l254 1446q4 23 21.5 38t39.5 15h867q23 0 34 -15q9 -12 10 -27q0 -5 -1 -11q-4 -23 -21.5 -37t-40.5 -14h-815l-96 -545h719q23 0 35 -15.5t8 -37.5q-2 -23 -20.5 -38t-41.5 -15h-719l-121 -689h816q23 0 35 -16t8 -39t-21.5 -37t-40.5 -14h-866q-23 0 -35 14 q-9 11 -9 26q0 5 1 11zM219 553l78 444q20 115 81.5 215.5t149.5 176t197 118.5t223 43q113 0 206 -41t159 -118q63 -80 87 -182q13 -54 12 -111q0 -49 -9 -101l-78 -444q-20 -115 -80.5 -215t-149.5 -175t-196.5 -119t-222.5 -44t-209 44t-155.5 119t-87.5 175 q-14 56 -14 116q0 48 9 99zM326 553q-7 -41 -8 -80q0 -48 12 -93q20 -81 71.5 -142.5t126 -96.5t166.5 -35t180.5 35t160 96.5t120.5 142.5t66 173l77 444q7 41 8 81q0 47 -11 91q-19 82 -72 144q-51 66 -126 99.5t-167 33.5t-179 -35t-160 -96.5t-122 -143t-66 -174.5z" />
<glyph unicode="&#x153;" horiz-adv-x="2009" d="M1210 393l39 221q14 78 55.5 150t110.5 127q66 57 142.5 86t156.5 29q164 0 258 -115q45 -55 63 -127q10 -39 9 -81q0 -34 -6 -69l-17 -100q-4 -23 -22.5 -38t-40.5 -15h-631l-12 -68q-4 -27 -5 -51q0 -32 8 -62q13 -52 46 -92.5t81 -63t109 -22.5h224q23 0 35 -14t8 -37 t-20.5 -37t-39.5 -14h-223q-82 0 -148.5 30.5t-111.5 84t-64 125.5q-10 40 -10 83q0 34 6 70zM1346 565h577l8 49q5 25 5 50q0 30 -7 59q-12 53 -45 94q-68 86 -188 86q-59 0 -115.5 -22.5t-103.5 -63.5q-49 -41 -81 -94t-42 -109zM186 393l39 221q14 78 56.5 150t107.5 127 q63 57 141 86t158 29t146.5 -29t111.5 -86q45 -55 63 -127q10 -39 9 -81q0 -34 -6 -69l-39 -221q-14 -82 -57.5 -153.5t-107 -125t-140 -84t-156.5 -30.5q-82 0 -148.5 30.5t-110.5 84t-63 125.5q-10 40 -10 83q0 34 6 70zM291 393q-4 -27 -5 -51q0 -32 8 -62 q13 -52 45 -92.5t81 -63t108 -22.5t115.5 22.5t104 62.5t80 92.5t42.5 113.5l39 221q4 24 5 48q0 31 -8 61q-13 53 -46 94q-72 86 -190 86q-117 0 -221 -86q-47 -41 -78 -94t-41 -109z" />
<glyph unicode="&#x178;" horiz-adv-x="1214" d="M323.5 1507.5q8.5 22.5 26.5 34.5q23 10 42.5 6t31.5 -20l338 -656l571 656q12 16 35 20t39 -6q16 -12 15 -34.5t-13 -39.5l-612 -706l-125 -711q-4 -23 -21.5 -37t-40.5 -14t-36 14.5t-9 36.5l125 711q-4 4 -5 7t-5 7l-352 692q-13 17 -4.5 39.5zM725 1710q4 23 20.5 37 t38.5 14q23 0 36.5 -14t8.5 -37q-4 -23 -22.5 -37t-40.5 -14q-23 0 -34 14t-7 37zM1053 1710q4 23 20.5 37t38.5 14q23 0 36 -14t9 -37t-22.5 -37t-40.5 -14q-23 0 -34 14t-7 37z" />
<glyph unicode="&#x2c6;" horiz-adv-x="548" d="M242 1242.5q0 21.5 20 37.5l238 240q27 18 45 18q23 0 37 -18l155 -240q8 -16 3 -37.5t-23 -34.5q-20 -16 -41 -12t-31 21l-125 184l-190 -184q-18 -16 -40 -20.5t-34 11.5q-14 13 -14 34.5z" />
<glyph unicode="&#x2000;" horiz-adv-x="966" />
<glyph unicode="&#x2001;" horiz-adv-x="1933" />
<glyph unicode="&#x2002;" horiz-adv-x="966" />
<glyph unicode="&#x2003;" horiz-adv-x="1933" />
<glyph unicode="&#x2004;" horiz-adv-x="643" />
<glyph unicode="&#x2005;" horiz-adv-x="483" />
<glyph unicode="&#x2006;" horiz-adv-x="321" />
<glyph unicode="&#x2007;" horiz-adv-x="321" />
<glyph unicode="&#x2008;" horiz-adv-x="241" />
<glyph unicode="&#x2009;" horiz-adv-x="385" />
<glyph unicode="&#x200a;" horiz-adv-x="106" />
<glyph unicode="&#x2010;" horiz-adv-x="866" d="M236 774q4 23 23.5 37t41.5 14h543q18 0 31.5 -14t9.5 -37t-22.5 -37t-37.5 -14h-542q-23 0 -37 14t-10 37z" />
<glyph unicode="&#x2011;" horiz-adv-x="866" d="M236 774q4 23 23.5 37t41.5 14h543q18 0 31.5 -14t9.5 -37t-22.5 -37t-37.5 -14h-542q-23 0 -37 14t-10 37z" />
<glyph unicode="&#x2012;" horiz-adv-x="866" d="M236 774q4 23 23.5 37t41.5 14h543q18 0 31.5 -14t9.5 -37t-22.5 -37t-37.5 -14h-542q-23 0 -37 14t-10 37z" />
<glyph unicode="&#x2013;" horiz-adv-x="827" d="M227 774q4 23 23.5 37t42.5 14h543q18 0 31.5 -14t9.5 -37t-22.5 -37t-37.5 -14h-543q-23 0 -37 14t-10 37z" />
<glyph unicode="&#x2014;" horiz-adv-x="968" d="M283 774q4 23 23.5 37t41.5 14h543q18 0 31.5 -14t9.5 -37t-22.5 -37t-37.5 -14h-542q-23 0 -37 14t-10 37z" />
<glyph unicode="&#x2018;" horiz-adv-x="542" d="M483 1776.5q4 21.5 25 38.5q16 14 37.5 15t34.5 -15l63 -78q14 -16 9 -37t-21 -35q-20 -16 -42 -17t-34 13l-63 78q-13 16 -9 37.5z" />
<glyph unicode="&#x2019;" horiz-adv-x="239" d="M328 1364l26 152q2 16 15.5 26t27.5 10q16 0 26.5 -10t8.5 -26l-26 -152q-2 -16 -16.5 -26.5t-31.5 -10.5q-14 0 -23 10.5t-7 26.5z" />
<glyph unicode="&#x201c;" horiz-adv-x="329" d="M291 1364l26 152q2 16 15.5 26t27.5 10q16 0 26.5 -10t8.5 -26l-26 -152q-2 -16 -16.5 -26.5t-30.5 -10.5q-14 0 -23.5 10.5t-7.5 26.5zM434 1364l27 152q2 16 15 26t28 10q16 0 26.5 -10t8.5 -26l-27 -152q-2 -16 -16.5 -26.5t-30.5 -10.5q-14 0 -23.5 10.5t-7.5 26.5z " />
<glyph unicode="&#x201d;" horiz-adv-x="329" d="M291 1364l26 152q2 16 15.5 26t27.5 10q16 0 26.5 -10t8.5 -26l-26 -152q-2 -16 -16.5 -26.5t-30.5 -10.5q-14 0 -23.5 10.5t-7.5 26.5zM434 1364l27 152q2 16 15 26t28 10q16 0 26.5 -10t8.5 -26l-27 -152q-2 -16 -16.5 -26.5t-30.5 -10.5q-14 0 -23.5 10.5t-7.5 26.5z " />
<glyph unicode="&#x2022;" horiz-adv-x="698" d="M285 768q10 61 61 105.5t115 44.5q59 0 97 -44.5t28 -105.5q-6 -31 -23.5 -57.5t-40.5 -48.5q-51 -45 -112 -46q-63 0 -103 46q-32 47 -22 106zM360 768q-6 -27 15 -51q6 -10 18.5 -15.5t28.5 -5.5q12 0 26.5 5.5t26.5 15.5q27 20 33 51q4 29 -13.5 50.5t-45.5 21.5 q-31 0 -58 -21.5t-31 -50.5z" />
<glyph unicode="&#x2026;" horiz-adv-x="1013" d="M785 43q4 27 23.5 43t45.5 16q27 0 41 -16t10 -43t-24.5 -43t-46.5 -16q-27 0 -40 16t-9 43zM447 43q4 27 23.5 43t45.5 16q27 0 41 -16t10 -43t-24.5 -43t-46.5 -16q-27 0 -40 16t-9 43zM109 43q4 27 23.5 43t45.5 16q27 0 41 -16t10 -43t-24.5 -43t-46.5 -16 q-27 0 -40 16t-9 43z" />
<glyph unicode="&#x202f;" horiz-adv-x="385" />
<glyph unicode="&#x2039;" horiz-adv-x="620" d="M147 774q4 23 27 41l500 361q18 12 38.5 10t30.5 -19q14 -16 6 -37.5t-26 -33.5l-438 -322l323 -321q14 -16 15.5 -37t-19.5 -37q-14 -16 -36.5 -19.5t-35.5 13.5l-372 360q-15 23 -13 41z" />
<glyph unicode="&#x203a;" horiz-adv-x="778" d="M201 415.5q6 20.5 24 37.5l439 321l-324 322q-14 12 -13 33.5t17 37.5q18 16 40 18.5t36 -9.5l373 -361q4 -8 7 -19.5t1 -21.5t-8.5 -20.5t-14.5 -20.5l-499 -360q-20 -16 -40 -13.5t-34 19.5q-10 16 -4 36.5z" />
<glyph unicode="&#x2044;" horiz-adv-x="905" d="M1116 1542q20 -10 23.5 -30.5t-9.5 -41.5l-997 -1443q-14 -18 -35.5 -25.5t-40.5 0.5q-16 10 -20 31.5t10 40.5l997 1446q18 20 39 24t33 -2z" />
<glyph unicode="&#x205f;" horiz-adv-x="483" />
<glyph unicode="&#x20ac;" horiz-adv-x="1124" d="M238 672q4 18 21 30.5t38 12.5h80l22 133h-80q-20 0 -33.5 12t-9.5 33q4 23 22.5 36t39.5 13h80v4q16 90 63 168t115 136.5t151.5 91t172.5 32.5q174 0 276 -127q14 -14 10 -35.5t-22 -37.5q-16 -14 -40 -14.5t-34 14.5q-39 45 -91 70.5t-118 25.5t-128 -25.5t-114.5 -70 t-88 -102.5t-48.5 -126v-4h301q18 0 28.5 -13.5t6.5 -35.5q-4 -20 -19.5 -32.5t-33.5 -12.5h-301l-23 -133h301q18 0 29.5 -12.5t7.5 -30.5q-4 -20 -19.5 -34.5t-33.5 -14.5h-301v-7q-12 -66 3 -124t51 -101t90.5 -68.5t119.5 -25.5q59 0 120.5 23.5t115.5 64.5 q16 14 38.5 14t36.5 -14q10 -14 6 -36.5t-20 -37.5q-70 -59 -149.5 -90t-165.5 -31q-88 0 -160 34t-120 91.5t-67.5 135t-3.5 165.5v7h-79q-20 0 -33.5 14.5t-9.5 34.5z" />
<glyph unicode="&#x2122;" horiz-adv-x="915" d="M371 1522q2 25 24 24h123h121q23 0 20 -24q-4 -14 -12 -20.5t-18 -6.5h-97l-57 -330q-6 -27 -29 -26q-27 0 -20 26l57 330h-98q-20 0 -14 27zM639 1165l63 357q2 12 12.5 18t18.5 6h37q4 0 6 -2l6 -6l78 -149l123 149q12 8 27 8h34q8 0 16.5 -6t6.5 -18l-63 -357 q-4 -12 -13.5 -19t-17.5 -7q-29 0 -23 26l58 324l-129 -164q-4 0 -12.5 -3t-18.5 -3q-2 0 -8 3t-11 3l-79 164l-58 -324q-6 -27 -30 -26q-8 0 -17.5 7t-5.5 19z" />
<glyph unicode="&#xe000;" horiz-adv-x="1000" d="M0 1000h1000v-1000h-1000v1000z" />
<glyph unicode="&#xfb01;" horiz-adv-x="1116" d="M881 55l160 899q4 23 20.5 37.5t38.5 14.5q23 0 36 -14.5t9 -37.5l-159 -899q-4 -25 -21.5 -39t-40.5 -14q-44 0 -44 40q0 6 1 13zM1082 1188q4 23 20.5 37t38.5 14q23 0 36 -14q10 -11 10 -27q0 -31 -23 -50q-18 -15 -41 -15t-34 15q-8 11 -8 27q0 6 1 13zM156 51 l206 1174q12 68 48 127t88.5 102t116 68.5t130.5 25.5h224q23 0 35 -14q9 -11 9 -26q0 -5 -1 -11q-4 -23 -21.5 -37t-40.5 -14h-223q-45 0 -88 -17.5t-79 -48t-60.5 -70.5t-32.5 -85l-39 -219h387q23 0 36 -14.5t9 -37.5t-22.5 -37t-40.5 -14h-387l-150 -852 q-4 -23 -20.5 -37t-38.5 -14q-23 0 -36 14t-9 37z" />
<glyph unicode="&#xfb02;" horiz-adv-x="1187" d="M914 55l256 1444q4 23 21.5 37t41.5 14q18 0 32.5 -14t10.5 -37l-256 -1444q-4 -25 -22.5 -39t-36.5 -14q-25 0 -38 14q-10 11 -10 28q0 5 1 11zM156 51l206 1174q12 68 48 127t88.5 102t116 68.5t130.5 25.5h224q23 0 35 -14q9 -11 9 -26q0 -5 -1 -11q-4 -23 -21.5 -37 t-40.5 -14h-223q-45 0 -88 -17.5t-79 -48t-60.5 -70.5t-32.5 -85l-39 -219h387q23 0 36 -14.5t9 -37.5t-22.5 -37t-40.5 -14h-387l-150 -852q-4 -23 -20.5 -37t-38.5 -14q-23 0 -36 14t-9 37z" />
<glyph unicode="&#xfb03;" horiz-adv-x="1865" d="M1630 55l160 899q4 23 20.5 37.5t38.5 14.5q23 0 36 -14.5t9 -37.5l-159 -899q-4 -25 -21.5 -39t-40.5 -14q-44 0 -44 40q0 6 1 13zM1831 1188q4 23 20.5 37t38.5 14q23 0 36 -14q10 -11 10 -27q0 -31 -23 -50q-18 -15 -41 -15t-34 15q-8 11 -8 27q0 6 1 13zM906 51 l206 1174q12 68 48 127t88.5 102t116 68.5t130.5 25.5h224q23 0 35 -14q9 -11 9 -26q0 -5 -1 -11q-4 -23 -21.5 -37t-40.5 -14h-223q-45 0 -88 -17.5t-79 -48t-60.5 -70.5t-32.5 -85l-39 -219h387q23 0 36 -14.5t9 -37.5t-22.5 -37t-40.5 -14h-387l-150 -852 q-4 -23 -20.5 -37t-38.5 -14q-23 0 -36 14t-9 37zM156 51l206 1174q12 68 48 127t88.5 102t116 68.5t130.5 25.5h224q23 0 35 -14q9 -11 9 -26q0 -5 -1 -11q-4 -23 -21.5 -37t-40.5 -14h-223q-45 0 -88 -17.5t-79 -48t-60.5 -70.5t-32.5 -85l-39 -219h387q23 0 36 -14.5 t9 -37.5t-22.5 -37t-40.5 -14h-387l-150 -852q-4 -23 -20.5 -37t-38.5 -14q-23 0 -36 14t-9 37z" />
<glyph unicode="&#xfb04;" horiz-adv-x="1937" d="M1663 55l256 1444q4 23 21.5 37t41.5 14q18 0 32.5 -14t10.5 -37l-256 -1444q-4 -25 -22.5 -39t-36.5 -14q-25 0 -38 14q-10 11 -10 28q0 5 1 11zM906 51l206 1174q12 68 48 127t88.5 102t116 68.5t130.5 25.5h224q23 0 35 -14q9 -11 9 -26q0 -5 -1 -11q-4 -23 -21.5 -37 t-40.5 -14h-223q-45 0 -88 -17.5t-79 -48t-60.5 -70.5t-32.5 -85l-39 -219h387q23 0 36 -14.5t9 -37.5t-22.5 -37t-40.5 -14h-387l-150 -852q-4 -23 -20.5 -37t-38.5 -14q-23 0 -36 14t-9 37zM156 51l206 1174q12 68 48 127t88.5 102t116 68.5t130.5 25.5h224q23 0 35 -14 q9 -11 9 -26q0 -5 -1 -11q-4 -23 -21.5 -37t-40.5 -14h-223q-45 0 -88 -17.5t-79 -48t-60.5 -70.5t-32.5 -85l-39 -219h387q23 0 36 -14.5t9 -37.5t-22.5 -37t-40.5 -14h-387l-150 -852q-4 -23 -20.5 -37t-38.5 -14q-23 0 -36 14t-9 37z" />
</font>
</defs>
</svg>
